<?xml version="1.0" encoding="UTF-8"?>
<svg version="1.1" xmlns="http://www.w3.org/2000/svg" width="1024" height="1024">
<path d="M0 0 C337.92 0 675.84 0 1024 0 C1024 337.92 1024 675.84 1024 1024 C686.08 1024 348.16 1024 0 1024 C0 686.08 0 348.16 0 0 Z " fill="#040102" transform="translate(0,0)"/>
<path d="M0 0 C0.95189209 -0.03220139 1.90378418 -0.06440277 2.88452148 -0.09757996 C7.27186649 -0.20831455 11.65905974 -0.29073634 16.04736328 -0.35253906 C18.35607688 -0.39411856 20.66452587 -0.45540699 22.97216797 -0.53710938 C42.08266164 -1.20286066 42.08266164 -1.20286066 47.80053711 2.24169922 C50.07348975 4.78891018 51.76793788 7.35557101 53.53125 10.2722168 C54.92691731 11.79595217 56.36628746 13.28087898 57.84765625 14.72143555 C58.54955078 15.42461914 59.25144531 16.12780273 59.97460938 16.85229492 C60.67392578 17.54774414 61.37324219 18.24319336 62.09375 18.9597168 C63.14852539 20.02029297 63.14852539 20.02029297 64.22460938 21.10229492 C67.44425051 24.31601215 70.68301812 27.44219393 74.15234375 30.38549805 C81.499809 36.72057768 88.15794873 43.84755325 94.97705078 50.73852539 C104.21020378 60.14278217 104.21020378 60.14278217 113.99804688 68.95776367 C115.6041204 70.3346904 117.12176289 71.69265583 118.53125 73.2722168 C118.53125 73.9322168 118.53125 74.5922168 118.53125 75.2722168 C119.38976562 75.63959961 119.38976562 75.63959961 120.265625 76.0144043 C122.91149402 77.48331778 124.67978139 79.22569923 126.78125 81.3972168 C127.48765625 82.12166992 128.1940625 82.84612305 128.921875 83.5925293 C129.45296875 84.14682617 129.9840625 84.70112305 130.53125 85.2722168 C133.30106025 83.99707018 135.42736337 82.65314933 137.6484375 80.5690918 C138.24487061 80.01133057 138.84130371 79.45356934 139.45581055 78.87890625 C140.09945557 78.26619873 140.74310059 77.65349121 141.40625 77.0222168 C142.0866333 76.38050537 142.7670166 75.73879395 143.46801758 75.07763672 C150.81626266 68.09472443 157.95975796 60.9019288 165.07958984 53.68725586 C165.97500488 52.78330078 166.87041992 51.8793457 167.79296875 50.94799805 C168.58662842 50.14273682 169.38028809 49.33747559 170.19799805 48.5078125 C172.53125 46.2722168 172.53125 46.2722168 175.01489258 44.29248047 C179.81166415 40.44138076 183.57797941 36.02926282 187.3553009 31.21696472 C190.02130305 27.8940129 192.83166492 24.70589127 195.65258789 21.51416016 C197.08576339 19.84337294 198.47269389 18.13149115 199.80395508 16.37841797 C205.46803151 8.98351403 211.68322915 2.42030314 221.19792938 0.82514191 C236.21165685 -0.74990233 251.50865415 0.20985776 266.53125 1.2722168 C266.55467576 25.47349748 266.57227652 49.67477645 266.58306217 73.87606621 C266.58820464 85.11472835 266.59520804 96.35338342 266.60668945 107.59204102 C266.61669916 117.39483684 266.62311831 127.19762753 266.62533849 137.00042832 C266.62663498 142.18437276 266.62965289 147.36830256 266.63698006 152.55224228 C266.64383977 157.44576928 266.64584702 162.3392758 266.64435768 167.23280716 C266.64462959 169.01518618 266.64657504 170.79756598 266.65045547 172.5799408 C266.67019887 182.12846406 266.50799003 191.621778 265.8812018 201.15215957 C265.65350424 204.65515895 265.50714427 208.12719417 265.52339268 211.6384716 C265.52975854 214.5824676 265.3709546 216.88938251 264.65625 219.7097168 C264.07986599 222.02726083 263.52309602 224.31684526 263.09375 226.66674805 C262.17057715 231.63704472 260.95797513 234.41715103 257.53125 238.2722168 C257.24894531 239.04049805 256.96664063 239.8087793 256.67578125 240.6003418 C255.31754326 243.77110898 253.56333388 245.75031145 251.21875 248.2722168 C250.00058594 249.58512695 250.00058594 249.58512695 248.7578125 250.92456055 C243.28496315 256.69505609 237.467653 261.98440411 231.53125 267.2722168 C230.75394531 267.97733398 229.97664062 268.68245117 229.17578125 269.40893555 C228.46808594 270.04444336 227.76039063 270.67995117 227.03125 271.3347168 C226.08765625 272.18743164 226.08765625 272.18743164 225.125 273.05737305 C223.53125 274.2722168 223.53125 274.2722168 221.53125 274.2722168 C221.20125 204.6422168 220.87125 135.0122168 220.53125 63.2722168 C218.55125 65.2522168 216.57125 67.2322168 214.53125 69.2722168 C213.87125 69.2722168 213.21125 69.2722168 212.53125 69.2722168 C212.30824219 69.83295898 212.08523438 70.39370117 211.85546875 70.97143555 C210.12578701 73.97669379 207.94970209 75.79527711 205.34375 78.0847168 C199.57255922 83.22590008 194.10718891 88.62665112 188.6965332 94.14453125 C185.45125622 97.43427006 182.16371978 100.40573735 178.53125 103.2722168 C176.17113125 105.53938566 173.90307181 107.87720464 171.66015625 110.26000977 C154.19967309 128.79754787 154.19967309 128.79754787 142.53125 132.2722168 C141.72429687 132.53905273 140.91734375 132.80588867 140.0859375 133.08081055 C131.81126805 135.40175442 123.15326599 134.09071204 115.53125 130.2722168 C104.98756686 124.29938354 96.65397444 115.4695392 88.20581055 106.92797852 C85.41721655 104.11840528 82.61854828 101.39316502 79.59375 98.8347168 C75.01930692 94.95955164 70.88428081 90.64995134 66.67089844 86.39233398 C63.08471572 82.78300216 59.43301444 79.34767529 55.54296875 76.06518555 C52.28690901 73.16318279 49.25419092 70.03616515 46.21020508 66.9140625 C43.63171821 64.25190282 43.63171821 64.25190282 40.53125 62.2722168 C40.86125 135.5322168 41.19125 208.7922168 41.53125 284.2722168 C29.34798374 278.18058367 18.37675964 267.29369861 10.53125 256.2722168 C9.78746094 255.25901367 9.04367188 254.24581055 8.27734375 253.2019043 C-4.3020484 235.82541832 -5.77181654 220.73120305 -5.71166992 199.84399414 C-5.71274407 197.67653343 -5.71468472 195.50907301 -5.71742249 193.34161377 C-5.72224985 187.48285208 -5.71464364 181.62416712 -5.70446944 175.76541471 C-5.69566375 169.63199169 -5.69744681 163.49857088 -5.6978302 157.36514282 C-5.69689531 147.07780681 -5.68823122 136.79050039 -5.67456055 126.50317383 C-5.65879513 114.59519216 -5.65356397 102.6872428 -5.6542961 90.77925146 C-5.65490525 79.325767 -5.64981283 67.87229309 -5.64150429 56.4188118 C-5.63796634 51.5408177 -5.63614033 46.66282732 -5.63561058 41.784832 C-5.63460996 36.05401416 -5.62853651 30.32322368 -5.61844444 24.59241486 C-5.61551164 22.48360232 -5.61429564 20.37478663 -5.61487198 18.26597214 C-5.61535894 15.40078575 -5.60974421 12.53567729 -5.60246277 9.67050171 C-5.60401137 8.82490924 -5.60555997 7.97931678 -5.6071555 7.1081003 C-5.57784411 0.18529368 -5.57784411 0.18529368 0 0 Z " fill="#807F7F" transform="translate(236.46875,335.727783203125)"/>
<path d="M0 0 C0 0.66 0 1.32 0 2 C-1.40353942 3.12967807 -2.80830176 4.25786602 -4.21875 5.37890625 C-6.98787566 7.89905351 -9.09239832 10.87971267 -11.34765625 13.85546875 C-14.79285487 18.32689675 -18.11145104 21.12147146 -23.0625 23.7890625 C-26.21230582 25.75769114 -28.81932031 28.29404856 -31.5546875 30.79296875 C-38.50080347 37.06222678 -45.87401333 42.75209606 -53.4921875 48.17578125 C-55.18979728 49.41064693 -56.84895591 50.69985131 -58.46875 52.03515625 C-61.08199327 54.06364601 -63.70018284 55.58604662 -66.625 57.125 C-69.52807487 58.66005055 -72.2646082 60.17640546 -75 62 C-76.69320036 62.53016602 -78.40458206 63.00371941 -80.125 63.4375 C-84.44150507 64.5608177 -88.63603829 65.84197896 -92.83203125 67.3515625 C-99.07928789 69.22011133 -105.31061586 69.16333806 -111.76953125 69.2109375 C-113.89649207 69.23900616 -116.0234451 69.26767062 -118.15039062 69.296875 C-121.48119892 69.33807784 -124.81186165 69.37499495 -128.14282227 69.40136719 C-131.37285855 69.42911541 -134.6022478 69.4749819 -137.83203125 69.5234375 C-138.81669876 69.52669037 -139.80136627 69.52994324 -140.81587219 69.53329468 C-149.1068702 69.67926686 -156.92210573 70.92210573 -163 77 C-169.05052135 84.77924174 -169.30898331 92.07026146 -169.30078125 101.55859375 C-169.30720894 103.21327415 -169.30720894 103.21327415 -169.31376648 104.90138245 C-169.31949208 107.22697261 -169.32002314 109.55258068 -169.31567383 111.87817383 C-169.31251351 115.42235044 -169.3359975 118.96569201 -169.36132812 122.50976562 C-169.36360136 124.77604062 -169.3643045 127.04231785 -169.36328125 129.30859375 C-169.372491 130.36090683 -169.38170074 131.41321991 -169.39118958 132.49742126 C-169.3360715 141.32740861 -167.48578952 147.85185002 -162 155 C-153.99870786 161.74399801 -144.39205028 162.5854961 -134.32763672 162.49829102 C-133.11153717 162.50380981 -131.89543762 162.50932861 -130.64248657 162.51501465 C-127.34079059 162.5266961 -124.03965958 162.52119265 -120.73798513 162.50871015 C-117.264162 162.50060253 -113.79046828 162.51755141 -110.31668091 162.53245544 C-102.25072135 162.56313126 -94.18488835 162.5647818 -86.11888123 162.56280518 C-75.84505659 162.5614079 -65.57132892 162.57189435 -55.29757512 162.6113829 C-51.17621077 162.62623553 -47.05521086 162.62610829 -42.93384147 162.61390507 C-39.7603934 162.60805512 -36.58700646 162.62124642 -33.41357422 162.63110352 C-32.28502014 162.62338425 -31.15646606 162.61566498 -29.99371338 162.60771179 C-23.43329465 162.64966676 -18.06425358 163.47904216 -12 166 C-10.56527344 166.56460938 -10.56527344 166.56460938 -9.1015625 167.140625 C9.38082623 175.41980229 23.97569388 188.72148705 37 204 C37.45375 204.5259375 37.9075 205.051875 38.375 205.59375 C47 215.728125 47 215.728125 47 219 C47.99 219.33 48.98 219.66 50 220 C54.53651501 226.44682889 54.58303676 233.59611461 54.4375 241.1875 C54.44458984 242.24130859 54.45167969 243.29511719 54.45898438 244.38085938 C54.41249913 250.05563531 54.10125491 254.09087068 51 259 C50.44183594 260.08796875 49.88367188 261.1759375 49.30859375 262.296875 C44.85150618 270.52248129 39.96623274 276.64743214 33 283 C29.93603242 285.98946381 27.06983482 289.04078167 24.3125 292.3125 C20.00378358 297.19733481 15.18327801 301.0835615 10 305 C8.94425781 305.83724609 8.94425781 305.83724609 7.8671875 306.69140625 C3.48175296 310.12236386 -0.96248646 312.65549684 -6 315 C-6.969375 315.515625 -7.93875 316.03125 -8.9375 316.5625 C-16.35790302 320.04554631 -24.02746765 321.75047612 -32.0625 323.1875 C-33.02349609 323.36474609 -33.98449219 323.54199219 -34.97460938 323.72460938 C-37.3154171 324.15550433 -39.65712485 324.58051928 -42 325 C-41.67 325.99 -41.34 326.98 -41 328 C-44.044502 330.029668 -44.60276328 330.24856301 -48.01245117 330.22705078 C-48.81305466 330.22689972 -49.61365814 330.22674866 -50.43852234 330.22659302 C-51.29798965 330.21627045 -52.15745697 330.20594788 -53.04296875 330.1953125 C-53.9265657 330.1924826 -54.81016266 330.18965271 -55.72053528 330.18673706 C-58.54299454 330.17554097 -61.36513662 330.15043751 -64.1875 330.125 C-66.10090688 330.11496946 -68.01431873 330.10584374 -69.92773438 330.09765625 C-74.61861182 330.07560351 -79.30925213 330.04107762 -84 330 C-82.06745228 327.9754262 -80.36841312 326.57894208 -78 325 C-114.96 324.67 -151.92 324.34 -190 324 C-190 323.34 -190 322.68 -190 322 C-188.671875 320.6953125 -188.671875 320.6953125 -186.75 319.125 C-179.9262947 313.33518944 -173.77830686 306.8314393 -167.5 300.46484375 C-164.79457102 297.79745986 -162.00583124 295.23391923 -159.1875 292.6875 C-158.21167969 291.80449219 -157.23585938 290.92148437 -156.23046875 290.01171875 C-155.69553802 289.54482635 -155.1606073 289.07793396 -154.60946655 288.59689331 C-152.92216566 287.03434778 -152.92216566 287.03434778 -151.68667603 284.98733521 C-149.30640867 281.73525051 -147.00914867 279.4481752 -142.96121407 278.5452137 C-136.53461976 277.80458974 -130.06213045 278.01232341 -123.60546875 278.10546875 C-121.49090744 278.10556748 -119.37634258 278.10170413 -117.26179504 278.09407043 C-111.70401215 278.08264572 -106.14747748 278.11622952 -100.58990479 278.1619873 C-91.70724515 278.22859331 -82.82447364 278.23103294 -73.94161415 278.22530556 C-70.85335838 278.23036972 -67.76588217 278.25719888 -64.67778015 278.28715515 C-45.63692548 278.3935555 -30.33573883 274.39334962 -16 261 C-15.34 260.01 -14.68 259.02 -14 258 C-13.34 258 -12.68 258 -12 258 C-11.87753906 257.41476562 -11.75507812 256.82953125 -11.62890625 256.2265625 C-10.99489713 253.98193393 -10.12289701 252.37190535 -8.9375 250.375 C-6.19761805 244.97552568 -5.98710576 239.76625463 -7.5546875 233.9375 C-12.33459283 222.64781885 -23.72455169 215.2385343 -34.48959351 210.44667053 C-39.57663597 208.56951848 -44.41122588 208.57421682 -49.78369141 208.59936523 C-50.83526428 208.59238617 -51.88683716 208.5854071 -52.97027588 208.57821655 C-56.43078726 208.55829847 -59.89099897 208.55874014 -63.3515625 208.55859375 C-65.77282506 208.5468109 -68.19408039 208.53344446 -70.61532593 208.51856995 C-76.98524418 208.48241909 -83.35509836 208.46219956 -89.72509766 208.44702148 C-99.89789133 208.42218494 -110.0705432 208.38217028 -120.24320602 208.32512093 C-123.77810824 208.30893019 -127.31287431 208.30502617 -130.84780884 208.30210876 C-158.6907251 208.21237426 -175.15481868 202.73481464 -195.3125 183 C-209.06564354 169.12489668 -214.25876101 151.98908429 -214.4168396 132.57369995 C-214.41076691 131.37117584 -214.40469421 130.16865173 -214.3984375 128.9296875 C-214.40130768 127.64619415 -214.40417786 126.36270081 -214.40713501 125.04031372 C-214.41150903 122.34951691 -214.40528733 119.65902279 -214.39111328 116.96826172 C-214.37398901 113.55502779 -214.38391393 110.14250033 -214.40183067 106.72929192 C-214.41539823 103.42103678 -214.40584659 100.11296255 -214.3984375 96.8046875 C-214.40451019 95.59811493 -214.41058289 94.39154236 -214.4168396 93.14840698 C-214.26700446 74.84538264 -207.37394283 58.52543234 -195 45 C-181.4231864 32.16010637 -167.17619665 26.62437883 -148.47973633 26.77294922 C-146.99966095 26.77251114 -146.99966095 26.77251114 -145.48968506 26.77206421 C-142.27037355 26.7734431 -139.05130167 26.78893563 -135.83203125 26.8046875 C-133.58330919 26.80842276 -131.33458549 26.81126731 -129.08586121 26.81326294 C-123.19883646 26.82085897 -117.31191213 26.84047246 -111.42492676 26.8626709 C-105.40504311 26.88321658 -99.38514306 26.89228323 -93.36523438 26.90234375 C-81.57677907 26.92372247 -69.78839792 26.95780923 -58 27 C-58 26.34 -58 25.68 -58 25 C-56.71996094 24.72800781 -55.43992187 24.45601563 -54.12109375 24.17578125 C-34.39336362 19.86064597 -34.39336362 19.86064597 -16.875 10.35546875 C-15 9 -15 9 -13 9 C-13 8.34 -13 7.68 -13 7 C-11.6696875 6.38125 -11.6696875 6.38125 -10.3125 5.75 C-7.00316344 4.00167125 -3.70222704 0 0 0 Z " fill="#AFAEAE" transform="translate(741,310)"/>
<path d="M0 0 C7.1715639 -0.30409964 14.34169428 -0.53359656 21.51844883 -0.67355824 C24.85398194 -0.74083463 28.18170451 -0.83884994 31.51538086 -0.98071289 C56.02681583 -1.99685004 56.02681583 -1.99685004 64.02330017 4.43086243 C66.3346562 6.61488111 68.44107033 8.90423638 70.48861694 11.33558655 C73.06966345 14.17796889 76.12174691 16.39651649 79.1875 18.6875 C83.4733795 21.99868766 87.67662067 25.37584324 91.8125 28.875 C96.57773355 32.88414982 101.47153379 36.68069125 106.4375 40.4375 C112.80004808 45.25510989 118.95849723 50.24257769 125.01171875 55.44140625 C131.10503501 60.65855939 137.34919806 65.69225799 143.625 70.6875 C150.38719841 76.08230284 157.04304002 81.60679496 163.71386719 87.11376953 C166.02923599 89.02412188 168.3463345 90.93235458 170.6640625 92.83984375 C171.42195068 93.46358887 172.17983887 94.08733398 172.96069336 94.72998047 C174.40416597 95.91786617 175.84768521 97.10569521 177.29125977 98.29345703 C177.95182373 98.83728027 178.6123877 99.38110352 179.29296875 99.94140625 C179.92122559 100.45719238 180.54948242 100.97297852 181.19677734 101.50439453 C182.37803407 102.48413711 183.55066431 103.47439676 184.71337891 104.47607422 C187.1514781 106.57069466 188.9143165 107.97143883 192 109 C192 109.66 192 110.32 192 111 C185.13565336 111.076815 178.27141979 111.1289168 171.40673828 111.16479492 C169.07726906 111.17977077 166.7478275 111.2001586 164.41845703 111.22631836 C133.43217817 111.5652931 114.880338 104.54329661 92.36816406 83.47265625 C85.90810599 77.43148356 79.38911444 71.61979193 72.484375 66.08203125 C69.45657892 63.54458579 66.75245794 60.77715364 64.00390625 57.9453125 C61.89627715 55.89930998 59.69380455 54.11475784 57.375 52.3125 C51.69424227 47.87659968 46.50790986 42.97041435 41.2578125 38.04296875 C38.19730416 35.17210356 35.07106913 32.39029125 31.89453125 29.6484375 C29.71554053 27.75249093 27.57724286 25.81512692 25.4375 23.875 C21.06366477 19.92903996 16.63661141 16.04805304 12.1875 12.1875 C11.55320068 11.63626465 10.91890137 11.0850293 10.26538086 10.51708984 C7.56946052 8.18349949 4.88184955 5.90939191 2.05078125 3.73828125 C1.37402344 3.16464844 0.69726562 2.59101562 0 2 C0 1.34 0 0.68 0 0 Z " fill="#A4A4A4" transform="translate(347,588)"/>
<path d="M0 0 C4.22751634 0.11322806 8.45530727 0.12314985 12.68410587 0.14445734 C20.67569702 0.20020775 28.66280793 0.34761618 36.65243363 0.52874815 C45.75468377 0.73058355 54.85715851 0.82906467 63.96109247 0.91926599 C82.6732771 1.10696093 101.38130269 1.42315079 120.0900507 1.82509089 C118.44579296 9.06286281 113.91367258 14.41802568 108.0900507 18.82509089 C106.56993033 21.07936361 106.56993033 21.07936361 105.0900507 23.82509089 C104.12136514 25.31114259 103.14108806 26.78967022 102.1525507 28.26259089 C101.66915226 28.98317682 101.18575382 29.70376276 100.68770695 30.44618464 C99.8968671 31.62374323 99.8968671 31.62374323 99.0900507 32.82509089 C98.60862614 33.84788645 98.12720158 34.87068201 97.63118839 35.92447138 C94.84390803 39.1060541 94.51330548 39.26527998 90.56136417 39.59131098 C88.65267432 39.6295309 86.74315238 39.63453448 84.83419132 39.61390924 C83.78928028 39.62614527 82.74436924 39.63838129 81.66779423 39.6509881 C78.19350768 39.68431051 74.72071213 39.67488965 71.2463007 39.66493464 C68.80475744 39.67874798 66.36322702 39.69503019 63.92171574 39.71365595 C57.45812449 39.75552492 50.99497977 39.76052448 44.53127384 39.75892878 C39.36608531 39.76372817 34.20122013 39.79451659 29.0361414 39.82682085 C1.37180921 39.99864874 -26.26377948 39.90458669 -53.9099493 38.82509089 C-52.13813728 34.28655566 -50.04901977 30.09372801 -47.48787975 25.93902636 C-45.33203021 22.43242739 -43.54890039 19.02065885 -42.04343319 15.18644953 C-33.92431895 -3.07187706 -17.21491397 -0.53930396 0 0 Z " fill="#7A7979" transform="translate(639.9099493026733,403.17490911483765)"/>
<path d="M0 0 C3.09766003 3.78602892 3.01400986 7.32810704 2.6875 12.0625 C1.28289303 14.93555972 -0.05760999 16.80760999 -2.3125 19.0625 C-6.32824272 19.37746021 -8.90317228 19.24013278 -12.625 17.625 C-17.08576506 16.94454431 -17.7485 17.64794781 -21.3125 20.1875 C-22.97989592 21.47822515 -24.64661929 22.76981984 -26.3125 24.0625 C-27.46170296 24.75883908 -28.62671906 25.43045639 -29.8125 26.0625 C-33.79721831 28.23512022 -37.40850408 30.91317377 -41.078125 33.57421875 C-44.60455277 35.92311557 -47.30702255 36.17709266 -51.43554688 36.125 C-52.48093628 36.115896 -53.52632568 36.10679199 -54.60339355 36.09741211 C-55.73458618 36.08589111 -56.86577881 36.07437012 -58.03125 36.0625 C-60.43229174 36.06134092 -62.8333358 36.06272552 -65.234375 36.06640625 C-69.0159043 36.07081249 -72.79496155 36.06273891 -76.57617188 36.01123047 C-92.92364963 35.09422032 -92.92364963 35.09422032 -107.24609375 41.46484375 C-108.61788865 42.98279967 -109.97562974 44.51369745 -111.3125 46.0625 C-114.37340605 48.01304266 -117.60207858 50.0625 -121.3125 50.0625 C-121.3125 50.7225 -121.3125 51.3825 -121.3125 52.0625 C-135.61048786 59.9344259 -135.61048786 59.9344259 -143.3125 59.0625 C-144.7975 59.5575 -144.7975 59.5575 -146.3125 60.0625 C-146.3125 59.4025 -146.3125 58.7425 -146.3125 58.0625 C-144.72255885 56.60332037 -143.06262428 55.22000645 -141.375 53.875 C-139.8590625 52.65876953 -139.8590625 52.65876953 -138.3125 51.41796875 C-135.84969361 49.48428092 -133.36877786 47.58075415 -130.875 45.6875 C-126.52217845 42.34641535 -122.5297018 38.66378222 -118.56079102 34.88134766 C-112.61284351 29.28457417 -109.09354239 27.71393394 -100.97026062 27.87507629 C-99.33562614 27.93111275 -99.33562614 27.93111275 -97.66796875 27.98828125 C-95.98058342 28.02794258 -95.98058342 28.02794258 -94.2591095 28.06840515 C-90.67219305 28.15605498 -87.08630154 28.26524712 -83.5 28.375 C-81.06579174 28.43827032 -78.63154653 28.50013598 -76.19726562 28.56054688 C-70.23515274 28.71157798 -64.27373713 28.88029172 -58.3125 29.0625 C-58.01972168 28.43950516 -57.72694336 27.81651031 -57.42529297 27.17463684 C-56.05658519 24.57676086 -54.88502944 23.47550299 -52.3125 22.0625 C-49.8671875 22.21020508 -49.8671875 22.21020508 -47.1875 22.76953125 C-40.25038088 23.61476202 -36.64712165 20.87767424 -31.3125 16.75 C-30.48105469 16.14220703 -29.64960937 15.53441406 -28.79296875 14.90820312 C-27.25977064 13.78493116 -25.73514387 12.64978649 -24.22265625 11.4987793 C-22.62595786 10.29819435 -20.97469618 9.17063079 -19.3125 8.0625 C-18.4532475 6.20935655 -18.4532475 6.20935655 -17.875 4.125 C-16.66498577 0.6462091 -15.70589304 -1.18938843 -12.3125 -2.9375 C-7.69424587 -4.93874346 -3.67686265 -3.08061465 0 0 Z " fill="#A0A1A2" transform="translate(784.3125,621.9375)"/>
<path d="M0 0 C2.0313489 0.4903256 4.06198238 0.9837262 6.08984375 1.48828125 C10.13914263 2.20030562 14.08943854 2.09344033 18.19067383 2.03295898 C24.40946489 1.95898561 30.59992592 2.16058392 36.8125 2.4375 C37.77373779 2.47689697 38.73497559 2.51629395 39.7253418 2.55688477 C40.62679932 2.59869873 41.52825684 2.6405127 42.45703125 2.68359375 C43.26116455 2.72025146 44.06529785 2.75690918 44.89379883 2.79467773 C47 3 47 3 50 4 C50 4.66 50 5.32 50 6 C51.10794922 6.07734375 51.10794922 6.07734375 52.23828125 6.15625 C68.45543672 7.96960411 79.82510242 21.7466883 90.83203125 32.83984375 C92.86222639 34.95934838 92.86222639 34.95934838 94.8125 36.375 C96.88818114 39.21540577 96.39612484 41.60464425 96 45 C93.531666 51.058638 89.4579856 54.57384232 84.53515625 58.7890625 C81.95481731 60.98046272 81.95481731 60.98046272 79.56640625 63.48828125 C71.98964382 70.90359059 63.16047128 76.11308389 53 79 C52.06960907 79.26806961 51.13921814 79.53613922 50.18063354 79.81233215 C38.9985168 82.61502901 28.08459642 82.28708839 16.6328125 82.07421875 C14.50049588 82.04612762 12.36816031 82.01944357 10.23580933 81.99409485 C4.66918536 81.92419444 -0.89697662 81.83539331 -6.46325684 81.74243164 C-12.16154531 81.65068489 -17.86006674 81.57712178 -23.55859375 81.50195312 C-34.70602822 81.35226593 -45.85305905 81.18257731 -57 81 C-57 80.34 -57 79.68 -57 79 C-55.25138924 78.99120064 -55.25138924 78.99120064 -53.467453 78.98222351 C-42.44835357 78.92485745 -31.42944885 78.8520237 -20.41054821 78.76428509 C-14.74645108 78.71967505 -9.08242434 78.68039838 -3.41821289 78.65356445 C2.05435848 78.62743795 7.52665765 78.58696978 12.99905968 78.53681374 C15.08045742 78.52020807 17.16190217 78.50865476 19.2433567 78.50238609 C39.41876641 78.43551041 55.67148716 75.3208616 71 61 C71.66 60.01 72.32 59.02 73 58 C73.66 58 74.32 58 75 58 C75.12246094 57.41476562 75.24492188 56.82953125 75.37109375 56.2265625 C76.00510287 53.98193393 76.87710299 52.37190535 78.0625 50.375 C80.80238195 44.97552568 81.01289424 39.76625463 79.4453125 33.9375 C74.86819044 23.12677362 63.84263808 15.23346348 53.30792236 10.89007568 C45.95340252 8.2752086 39.44814215 7.39969293 31.671875 7.390625 C30.55685608 7.37408875 29.44183716 7.35755249 28.29302979 7.34051514 C24.77862818 7.2924521 21.26465788 7.2707568 17.75 7.25 C15.34763503 7.22180551 12.94528979 7.1918733 10.54296875 7.16015625 C4.69538976 7.08670481 -1.15207003 7.03481941 -7 7 C-4.66666667 4.66666667 -2.33333333 2.33333333 0 0 Z " fill="#B7B6B6" transform="translate(654,510)"/>
<path d="M0 0 C0.495 0.99 0.495 0.99 1 2 C0.5153125 2.4125 0.030625 2.825 -0.46875 3.25 C-4.10857959 6.38585318 -7.62888789 9.57537817 -11 13 C-15.64144423 17.70527548 -20.51928867 22.0830867 -25.75 26.125 C-28.07506847 27.9293006 -28.07506847 27.9293006 -29.8125 30.3125 C-32.24695007 33.3033958 -34.93442044 35.61623671 -37.859375 38.11328125 C-39.9989414 39.99906696 -42.00146666 41.96605958 -44 44 C-46.53972186 46.5792506 -49.12451314 49.02217389 -51.875 51.375 C-56.0102218 54.92297136 -59.80373002 58.76796213 -63.60546875 62.66796875 C-66 65 -66 65 -68.73828125 67.17578125 C-71.07350284 68.80081156 -71.07350284 68.80081156 -72 71 C-77.28 71 -82.56 71 -88 71 C-86.31166633 67.62333266 -85.53966016 66.31082536 -82.91796875 63.94140625 C-82.31533203 63.39033203 -81.71269531 62.83925781 -81.09179688 62.27148438 C-80.14916992 61.42553711 -80.14916992 61.42553711 -79.1875 60.5625 C-77.95100325 59.4397041 -76.71531267 58.31601968 -75.48046875 57.19140625 C-74.93285889 56.69842041 -74.38524902 56.20543457 -73.82104492 55.69750977 C-71.48763501 53.52239257 -69.24684323 51.26435055 -67 49 C-66.17765869 48.17242188 -65.35531738 47.34484375 -64.50805664 46.4921875 C-63.65074951 45.62851562 -62.79344238 44.76484375 -61.91015625 43.875 C-60.45815531 42.41562516 -59.00567299 40.95673134 -57.55297852 39.49804688 C-56.56021642 38.50024372 -55.56835201 37.5015466 -54.57739258 36.50195312 C-49.5590204 31.44118622 -44.57857114 26.44862132 -39 22 C-38.2575 21.2575 -37.515 20.515 -36.75 19.75 C-35.38875 18.38875 -35.38875 18.38875 -34 17 C-33.31421875 16.30519531 -32.6284375 15.61039063 -31.921875 14.89453125 C-22.75076457 6.06363944 -12.62916718 1.46791923 0 0 Z " fill="#A2A4A4" transform="translate(590,563)"/>
<path d="M0 0 C1.9827548 1.91194212 2.48687071 2.9684973 2.75 5.6875 C2.42 6.3475 2.09 7.0075 1.75 7.6875 C2.41 7.6875 3.07 7.6875 3.75 7.6875 C6.06924883 14.88937793 6.06924883 14.88937793 4.625 18.5 C0.39556962 23.43433544 0.39556962 23.43433544 -3.33203125 24.0078125 C-7.48890567 24.21462217 -9.69482909 24.02740055 -13.3125 21.8125 C-15.25 19.6875 -15.25 19.6875 -15.25 17.6875 C-21.90229434 17.48344402 -28.55377267 17.34406078 -35.20849609 17.24804688 C-37.46856848 17.20799414 -39.7284359 17.15353334 -41.98779297 17.08398438 C-56.74511632 16.03773759 -56.74511632 16.03773759 -69.7265625 21.71875 C-70.93876453 23.00718939 -72.12883088 24.31911058 -73.25 25.6875 C-73.58 25.6875 -73.91 25.6875 -74.25 25.6875 C-75.13709677 16.45512246 -75.13709677 16.45512246 -73.1953125 12.5859375 C-71.6232655 10.79295416 -70.40911788 9.70833816 -68.25 8.6875 C-65.29027024 8.50715804 -63.18308025 8.97951511 -60.25 9.6875 C-60.25 10.6775 -60.25 11.6675 -60.25 12.6875 C-58.6 12.6875 -56.95 12.6875 -55.25 12.6875 C-55.25 12.0275 -55.25 11.3675 -55.25 10.6875 C-54.37786865 10.69910156 -53.5057373 10.71070313 -52.60717773 10.72265625 C-49.34235508 10.74695745 -46.08165215 10.73520319 -42.81713867 10.69970703 C-41.40992164 10.6916409 -40.00254703 10.69757166 -38.59545898 10.71826172 C-30.25750227 11.03785215 -30.25750227 11.03785215 -22.81323242 7.90795898 C-21.09118298 5.91491914 -19.68349892 3.89086186 -18.25 1.6875 C-12.63502122 -2.55797176 -6.20910036 -3.62197521 0 0 Z " fill="#767778" transform="translate(788.25,345.3125)"/>
<path d="M0 0 C4.43669716 0.83188072 8.4242607 1.92615534 11.625 5.25 C12.44878648 10.33001663 9.68362349 14.57727791 6.875 18.625 C3.27524183 21.05092398 1.36698229 20.8624233 -2.81640625 20.34765625 C-5 19.5625 -5 19.5625 -6.58599854 17.54754639 C-10.08176528 14.6729586 -13.47776944 14.99056477 -17.80761719 15.01660156 C-18.69577621 15.00626389 -19.58393524 14.99592621 -20.49900818 14.98527527 C-23.4318145 14.95580054 -26.36393208 14.95434711 -29.296875 14.953125 C-31.33141398 14.93814652 -33.36594079 14.92142007 -35.40045166 14.90301514 C-40.75324048 14.85929226 -46.10586527 14.83933152 -51.45880127 14.82427979 C-56.9218518 14.80472656 -62.38472472 14.76275453 -67.84765625 14.72265625 C-78.56504945 14.6473006 -89.282403 14.5970415 -100 14.5625 C-100 12.5625 -100 12.5625 -97.6875 10 C-93.41370554 6.12376782 -89.71157862 6.44860641 -84.24316406 6.54418945 C-82.60793091 6.56386176 -80.97269733 6.58349813 -79.33746338 6.60310364 C-78.47063179 6.61533274 -77.6038002 6.62756184 -76.71070099 6.64016151 C-72.11719435 6.70087204 -67.52344162 6.73149764 -62.9296875 6.76757812 C-57.08530333 6.81546858 -51.2413912 6.87214552 -45.39746094 6.96020508 C-40.67369892 7.03060217 -35.95047777 7.07144995 -31.22624969 7.09282494 C-29.42887747 7.10638919 -27.63155217 7.13076847 -25.83448029 7.16631508 C-23.31380153 7.21479278 -20.79550046 7.22547072 -18.27441406 7.2277832 C-17.53753357 7.2509259 -16.80065308 7.2740686 -16.04144287 7.2979126 C-10.6582644 7.24523954 -8.16418351 5.56514168 -4.53332138 1.90654278 C-3 0.5625 -3 0.5625 0 0 Z " fill="#979797" transform="translate(775,375.4375)"/>
<path d="M0 0 C3.09766003 3.78602892 3.01400986 7.32810704 2.6875 12.0625 C1.28289303 14.93555972 -0.05760999 16.80760999 -2.3125 19.0625 C-6.32824272 19.37746021 -8.90317228 19.24013278 -12.625 17.625 C-17.08576506 16.94454431 -17.7485 17.64794781 -21.3125 20.1875 C-22.97989592 21.47822515 -24.64661929 22.76981984 -26.3125 24.0625 C-27.46170296 24.75883908 -28.62671906 25.43045639 -29.8125 26.0625 C-32.85556679 27.70604315 -35.53670425 29.68905526 -38.3125 31.75 C-42.46819752 34.69757236 -45.19778736 36.16688189 -50.3125 36.0625 C-51.3025 35.4025 -52.2925 34.7425 -53.3125 34.0625 C-53.3125 33.4025 -53.3125 32.7425 -53.3125 32.0625 C-54.9625 31.4025 -56.6125 30.7425 -58.3125 30.0625 C-58.0107142 27.2458325 -57.24064223 25.97387542 -55.4375 23.75 C-51.81483232 21.79375945 -51.1203091 22.11729736 -47.2421875 22.8515625 C-40.2982433 23.60663772 -36.64933872 20.8793897 -31.3125 16.75 C-30.48105469 16.14220703 -29.64960937 15.53441406 -28.79296875 14.90820312 C-27.25977064 13.78493116 -25.73514387 12.64978649 -24.22265625 11.4987793 C-22.62595786 10.29819435 -20.97469618 9.17063079 -19.3125 8.0625 C-18.4532475 6.20935655 -18.4532475 6.20935655 -17.875 4.125 C-16.66498577 0.6462091 -15.70589304 -1.18938843 -12.3125 -2.9375 C-7.69424587 -4.93874346 -3.67686265 -3.08061465 0 0 Z " fill="#767778" transform="translate(784.3125,621.9375)"/>
<path d="M0 0 C1.8871875 0.0309375 1.8871875 0.0309375 3.8125 0.0625 C3.8125 2.3725 3.8125 4.6825 3.8125 7.0625 C2.86375 7.35125 1.915 7.64 0.9375 7.9375 C-2.23961578 8.83075109 -2.23961578 8.83075109 -4.1875 11.0625 C-4.50945464 13.50224176 -4.50945464 13.50224176 -4.49609375 16.33203125 C-4.52123047 17.38583984 -4.54636719 18.43964844 -4.57226562 19.52539062 C-4.60723651 21.74668933 -4.63852624 23.96804924 -4.66601562 26.18945312 C-4.69244141 27.24712891 -4.71886719 28.30480469 -4.74609375 29.39453125 C-4.75954834 30.36108643 -4.77300293 31.3276416 -4.78686523 32.32348633 C-5.25189887 35.50277477 -6.48617596 37.37217295 -8.1875 40.0625 C-7.93506206 43.5966312 -7.18539249 45.06566126 -5.1875 48.0625 C-4.91625977 50.35913086 -4.91625977 50.35913086 -4.87890625 53.02734375 C-4.85376953 53.99220703 -4.82863281 54.95707031 -4.80273438 55.95117188 C-4.76764678 57.97975496 -4.73638163 60.00840785 -4.70898438 62.03710938 C-4.68255859 63.00326172 -4.65613281 63.96941406 -4.62890625 64.96484375 C-4.61545166 65.84648193 -4.60199707 66.72812012 -4.58813477 67.63647461 C-4.10695752 70.55022127 -3.20849587 71.93322038 -1.1875 74.0625 C1.41105733 74.8667208 1.41105733 74.8667208 3.8125 75.0625 C3.8125 77.0425 3.8125 79.0225 3.8125 81.0625 C-3.78318204 81.8220682 -3.78318204 81.8220682 -7.05078125 80.0546875 C-10.20427033 77.44112583 -12.9969805 74.85622471 -13.44287109 70.65820312 C-13.45181396 69.26504883 -13.45181396 69.26504883 -13.4609375 67.84375 C-13.4815625 66.82925781 -13.5021875 65.81476563 -13.5234375 64.76953125 C-13.54947818 62.63159129 -13.56770808 60.49354192 -13.578125 58.35546875 C-13.60132813 57.34097656 -13.62453125 56.32648437 -13.6484375 55.28125 C-13.65665527 54.35248047 -13.66487305 53.42371094 -13.67333984 52.46679688 C-13.9798614 49.91960887 -13.9798614 49.91960887 -16.08056641 48.27929688 C-18.14444365 47.08736591 -19.85148747 46.4796451 -22.1875 46.0625 C-22.1875 44.0825 -22.1875 42.1025 -22.1875 40.0625 C-21.424375 39.815 -20.66125 39.5675 -19.875 39.3125 C-16.81355189 37.88857065 -15.8890728 36.94253421 -14.1875 34.0625 C-13.78158182 31.2779603 -13.78158182 31.2779603 -13.88671875 28.23046875 C-13.87833984 27.10189453 -13.86996094 25.97332031 -13.86132812 24.81054688 C-13.870398 22.44849325 -13.8911156 20.08645389 -13.92382812 17.72460938 C-13.85267012 11.1443665 -13.51610184 7.00474296 -8.76879883 2.2277832 C-5.94188041 0.14458394 -3.38317481 -0.05546188 0 0 Z " fill="#D5D7D7" transform="translate(338.1875,481.9375)"/>
<path d="M0 0 C5.89255452 -0.51689075 8.86559396 -0.01804002 13.5546875 3.61328125 C15.90120404 5.86466874 16.95449389 7.50896039 17.25537109 10.75561523 C17.26431396 12.3905896 17.26431396 12.3905896 17.2734375 14.05859375 C17.2940625 15.24904297 17.3146875 16.43949219 17.3359375 17.66601562 C17.361938 20.17636383 17.38019191 22.68680445 17.390625 25.19726562 C17.41382813 26.38900391 17.43703125 27.58074219 17.4609375 28.80859375 C17.46915527 29.89970459 17.47737305 30.99081543 17.48583984 32.11499023 C18.11780184 35.66099924 19.18993777 36.81393594 22 39 C23.485 39.495 23.485 39.495 25 40 C25.33 41.65 25.66 43.3 26 45 C24.865625 45.474375 23.73125 45.94875 22.5625 46.4375 C19.24259834 47.63622083 19.24259834 47.63622083 18 49 C17.89101409 50.6484823 17.84418592 52.30116461 17.82421875 53.953125 C17.80037109 54.96503906 17.77652344 55.97695313 17.75195312 57.01953125 C17.70930005 59.15735499 17.67787943 61.29543508 17.65820312 63.43359375 C17.44509648 71.254112 17.44509648 71.254112 15.14453125 75.109375 C11.64331277 78.19605941 9.40177378 79.26739425 4.8125 79.625 C3.46091797 79.73714844 3.46091797 79.73714844 2.08203125 79.8515625 C1.39496094 79.90054688 0.70789063 79.94953125 0 80 C0 77.69 0 75.38 0 73 C1.98 73 3.96 73 6 73 C7.93005554 69.73749344 8.27081347 67.23207834 8.34375 63.46484375 C8.37339844 62.40845703 8.40304687 61.35207031 8.43359375 60.26367188 C8.47794254 58.04231926 8.5222131 55.82096509 8.56640625 53.59960938 C8.59605469 52.54451172 8.62570312 51.48941406 8.65625 50.40234375 C8.67494141 49.43804443 8.69363281 48.47374512 8.71289062 47.48022461 C9 45 9 45 11 42 C10.74276031 39.97080157 10.74276031 39.97080157 10 38 C8.96238936 34.88716808 8.84572185 32.61023952 8.7890625 29.34375 C8.76070313 28.23902344 8.73234375 27.13429688 8.703125 25.99609375 C8.65104527 23.665526 8.60677295 21.33477068 8.5703125 19.00390625 C8.539375 17.89917969 8.5084375 16.79445313 8.4765625 15.65625 C8.45674316 14.64369141 8.43692383 13.63113281 8.41650391 12.58789062 C7.94315625 9.64680904 7.36325934 8.74928586 5 7 C2.89667109 6.28552357 2.89667109 6.28552357 1 6 C0.67 4.02 0.34 2.04 0 0 Z " fill="#C3C3C4" transform="translate(395,482)"/>
<path d="M0 0 C0.66 0.33 1.32 0.66 2 1 C2 1.66 2 2.32 2 3 C3.32 3.33 4.64 3.66 6 4 C4.47415181 8.89877576 2.80931665 13.54324315 0.625 18.1875 C-1.8983042 23.58372283 -3.87355485 29.10103224 -5.7890625 34.73828125 C-6.9877363 37.96696712 -8.43453248 40.93568059 -10 44 C-10.64599106 45.55393912 -11.27213849 47.11632552 -11.875 48.6875 C-13.32041206 52.37579285 -14.88814718 55.9724462 -16.5625 59.5625 C-18.74595514 64.29331946 -20.45108244 69.02715943 -22 74 C-24.31 73.34 -26.62 72.68 -29 72 C-29.24352585 67.97706174 -28.5278498 65.32174866 -26.90234375 61.65234375 C-26.44456543 60.59901855 -25.98678711 59.54569336 -25.51513672 58.46044922 C-25.0151416 57.31850098 -24.51514648 56.17655273 -24 55 C-22.95514124 52.50304354 -21.91486476 50.00453253 -20.87890625 47.50390625 C-20.33053312 46.18926324 -19.78169994 44.87481205 -19.23242188 43.56054688 C-18.39767467 41.56296775 -17.56359395 39.56513018 -16.73217773 37.56616211 C-13.00925222 28.61730753 -9.10721325 19.78109094 -5 11 C-3.32621642 7.33654917 -1.66168907 3.66895065 0 0 Z " fill="#959696" transform="translate(381,488)"/>
<path d="M0 0 C0 0.66 0 1.32 0 2 C-0.83992744 1.97549019 -0.83992744 1.97549019 -1.69682312 1.95048523 C-7.58732913 1.79173168 -13.47386622 1.72667292 -19.36645508 1.71313477 C-21.55751684 1.69622221 -23.74853751 1.65634691 -25.9387207 1.59204102 C-40.52119909 0.83562009 -40.52119909 0.83562009 -52.90306091 7.38717651 C-54.99313174 9.65940866 -56.92851875 12.0110126 -58.79354858 14.47058105 C-60.33333271 16.42256601 -62.07659531 17.94550996 -64.0078125 19.50390625 C-67.58349731 22.54558459 -70.87964568 25.81850625 -74.1796875 29.15234375 C-74.72369202 29.70185699 -75.26769653 30.25137024 -75.82818604 30.8175354 C-78.09185249 33.10897563 -80.3517053 35.40410223 -82.60742188 37.70336914 C-84.2730413 39.39900186 -85.94467587 41.08851301 -87.6171875 42.77734375 C-88.12861298 43.30222885 -88.64003845 43.82711395 -89.16696167 44.36790466 C-90.40717829 45.61695159 -91.69933895 46.81402517 -93 48 C-93.66 48 -94.32 48 -95 48 C-95 48.66 -95 49.32 -95 50 C-96.35546875 51.33203125 -96.35546875 51.33203125 -98.1875 52.8125 C-101.32952646 55.36582433 -104.14759866 58.12616174 -107 61 C-107.83281494 61.83805176 -108.66562988 62.67610352 -109.52368164 63.53955078 C-110.39371826 64.41595215 -111.26375488 65.29235352 -112.16015625 66.1953125 C-113.62534471 67.66786702 -115.09100918 69.13994591 -116.55688477 70.61181641 C-117.56330968 71.62330037 -118.56883957 72.63567565 -119.57348633 73.64892578 C-121.03750238 75.12510421 -122.50475456 76.59799912 -123.97265625 78.0703125 C-124.84156494 78.94445801 -125.71047363 79.81860352 -126.60571289 80.71923828 C-132.1086419 85.9612453 -132.1086419 85.9612453 -135.875 86.125 C-139.71802914 84.74150951 -141.09759359 82.92127356 -143.5625 79.76953125 C-145.43717987 77.46184109 -147.64951143 75.80806813 -150 74 C-151.66666667 72.33333333 -153.33333333 70.66666667 -155 69 C-155.78375 68.401875 -156.5675 67.80375 -157.375 67.1875 C-159.60473812 65.3293849 -161.31323139 63.56530454 -163.1875 61.375 C-168.79998729 54.82914502 -174.46157084 48.30407808 -182 44 C-184.3125 41.9375 -184.3125 41.9375 -186 40 C-186 39.34 -186 38.68 -186 38 C-186.66 38 -187.32 38 -188 38 C-190.125 36.125 -190.125 36.125 -192 34 C-192 33.34 -192 32.68 -192 32 C-192.66 32 -193.32 32 -194 32 C-195.55078125 30.42578125 -195.55078125 30.42578125 -197.3125 28.3125 C-202.32693798 22.43492106 -207.82849923 17.31272102 -213.59765625 12.18359375 C-215.80025741 10.18155465 -217.91503048 8.1234909 -220 6 C-219.01 5.67 -218.02 5.34 -217 5 C-216.40574219 5.59949463 -215.81148438 6.19898926 -215.19921875 6.81665039 C-212.95733893 9.07574527 -210.71308469 11.33244873 -208.46728516 13.58764648 C-207.50248541 14.55742273 -206.53859105 15.5281007 -205.57568359 16.49975586 C-199.08004345 23.08355262 -199.08004345 23.08355262 -192.21875 29.27734375 C-184.90968947 35.53600594 -178.31741715 42.63180957 -171.55419922 49.46630859 C-162.32104622 58.87056537 -162.32104622 58.87056537 -152.53320312 67.68554688 C-150.9271296 69.06247361 -149.40948711 70.42043903 -148 72 C-148 72.66 -148 73.32 -148 74 C-147.14148438 74.36738281 -147.14148438 74.36738281 -146.265625 74.7421875 C-143.61975598 76.21110099 -141.85146861 77.95348244 -139.75 80.125 C-139.04359375 80.84945312 -138.3371875 81.57390625 -137.609375 82.3203125 C-137.07828125 82.87460937 -136.5471875 83.42890625 -136 84 C-133.23018975 82.72485338 -131.10388663 81.38093254 -128.8828125 79.296875 C-128.28637939 78.73911377 -127.68994629 78.18135254 -127.07543945 77.60668945 C-126.43179443 76.99398193 -125.78814941 76.38127441 -125.125 75.75 C-124.4446167 75.10828857 -123.7642334 74.46657715 -123.06323242 73.80541992 C-115.71498734 66.82250763 -108.57149204 59.62971201 -101.45166016 52.41503906 C-100.55624512 51.51108398 -99.66083008 50.60712891 -98.73828125 49.67578125 C-97.94462158 48.87052002 -97.15096191 48.06525879 -96.33325195 47.2355957 C-94 45 -94 45 -91.51635742 43.02026367 C-86.71841261 39.16822202 -82.95632478 34.75214114 -79.17063904 29.94529724 C-55.71716204 0.62142505 -36.82114025 -5.4851966 0 0 Z " fill="#E8E6E6" transform="translate(503,337)"/>
<path d="M0 0 C7.02710215 0.6048763 13.99747127 0.7472748 21.04768372 0.78065491 C23.02562927 0.7955043 23.02562927 0.7955043 25.04353333 0.81065369 C28.61494519 0.83736497 32.18636982 0.85855428 35.75782418 0.87865567 C39.50674446 0.90072715 43.25562696 0.92801093 47.0045166 0.95471191 C54.08371472 1.0043559 61.16293413 1.04939803 68.24217337 1.09273428 C76.31006095 1.14235064 84.37791058 1.19717719 92.44576132 1.25241387 C109.02356429 1.36579878 125.60140223 1.47273016 142.17927551 1.57533264 C140.85927551 2.23533264 139.53927551 2.89533264 138.17927551 3.57533264 C138.50927551 4.56533264 138.83927551 5.55533264 139.17927551 6.57533264 C136.13477351 8.60500064 135.57651223 8.82389565 132.16682434 8.80238342 C131.36622086 8.80223236 130.56561737 8.8020813 129.74075317 8.80192566 C128.88128586 8.79160309 128.02181854 8.78128052 127.13630676 8.77064514 C126.25270981 8.76781525 125.36911285 8.76498535 124.45874023 8.7620697 C121.63628097 8.75087361 118.81413889 8.72577015 115.99177551 8.70033264 C114.07836864 8.6903021 112.16495679 8.68117638 110.25154114 8.67298889 C105.56066369 8.65093615 100.87002338 8.61641026 96.17927551 8.57533264 C98.11182323 6.55075884 99.81086239 5.15427472 102.17927551 3.57533264 C65.21927551 3.24533264 28.25927551 2.91533264 -9.82072449 2.57533264 C-7.79073838 -1.48463956 -3.89977098 -0.38215101 0 0 Z " fill="#626161" transform="translate(560.8207244873047,631.4246673583984)"/>
<path d="M0 0 C2.7732186 2.32350747 3.84803402 3.54410205 5 7 C5.37288316 12.03392271 5.03052983 14.92044061 2 19 C0 21 0 21 -3.0625 21.3125 C-7.73455841 20.94170171 -11.64555601 19.6588358 -16 18 C-16.08160748 16.10489301 -16.13946459 14.20875496 -16.1875 12.3125 C-16.22230469 11.25675781 -16.25710938 10.20101562 -16.29296875 9.11328125 C-15.96005031 5.57546794 -15.14002569 3.81063282 -13 1 C-8.02752671 -1.90842778 -5.2003778 -2.65797087 0 0 Z " fill="#C1C3C4" transform="translate(782,620)"/>
<path d="M0 0 C1.73360334 0.03560066 3.46708882 0.07723703 5.20043945 0.12353516 C6.11702835 0.14477448 7.03361725 0.16601379 7.97798157 0.18789673 C9.92418397 0.2342686 11.87032665 0.28320523 13.81640625 0.33447266 C16.78348632 0.4118096 19.75067004 0.47923315 22.71801758 0.54541016 C24.60800629 0.5916866 26.4979809 0.63854321 28.38793945 0.68603516 C29.27253342 0.7058847 30.15712738 0.72573425 31.06852722 0.7461853 C35.51258088 0.86919392 39.75093758 1.16298772 44.1262207 2.03759766 C43.7962207 4.01759766 43.4662207 5.99759766 43.1262207 8.03759766 C25.6362207 8.03759766 8.1462207 8.03759766 -9.8737793 8.03759766 C-9.8737793 6.03759766 -9.8737793 6.03759766 -7.4362793 3.47509766 C-6.5906543 2.67072266 -5.7450293 1.86634766 -4.8737793 1.03759766 C-3.8737793 0.03759766 -3.8737793 0.03759766 0 0 Z " fill="#DBDEDC" transform="translate(684.873779296875,381.96240234375)"/>
<path d="M0 0 C1.9827548 1.91194212 2.48687071 2.9684973 2.75 5.6875 C2.42 6.3475 2.09 7.0075 1.75 7.6875 C2.41 7.6875 3.07 7.6875 3.75 7.6875 C6.06924883 14.88937793 6.06924883 14.88937793 4.625 18.5 C0.38744428 23.44381501 0.38744428 23.44381501 -3.40234375 24.0078125 C-5.78484203 24.1236552 -7.9014172 24.11006698 -10.25 23.6875 C-12.3125 21.6875 -12.3125 21.6875 -13.25 19.6875 C-8.5 16.6875 -8.5 16.6875 -6.25 16.6875 C-6.311875 15.140625 -6.311875 15.140625 -6.375 13.5625 C-6.25424851 9.81920373 -5.60127982 7.15015453 -4.25 3.6875 C-9.82852086 4.80320417 -12.27036249 5.57063361 -16.25 9.6875 C-19 9.9375 -19 9.9375 -21.25 9.6875 C-21.58 8.3675 -21.91 7.0475 -22.25 5.6875 C-15.43676725 -0.06589654 -8.88965652 -5.18563297 0 0 Z " fill="#9EA0A0" transform="translate(788.25,345.3125)"/>
<path d="M0 0 C16.53366957 -0.07019213 33.06729054 -0.12303803 49.60107327 -0.15543652 C57.2786146 -0.17088193 64.95606315 -0.19192675 72.63354492 -0.22631836 C79.3280257 -0.25629219 86.02243926 -0.2755919 92.71698529 -0.28226548 C96.259192 -0.28616428 99.80120648 -0.29527794 103.34335136 -0.31719017 C107.30502707 -0.34149714 111.26651755 -0.34196488 115.22827148 -0.34057617 C116.97507706 -0.35675491 116.97507706 -0.35675491 118.75717163 -0.3732605 C125.40935889 -0.34807784 130.85796263 0.41803089 137 3 C138.04929687 3.4228125 139.09859375 3.845625 140.1796875 4.28125 C141.06914063 4.6834375 141.95859375 5.085625 142.875 5.5 C143.77992188 5.9021875 144.68484375 6.304375 145.6171875 6.71875 C147.87068059 7.93046432 149.32365855 9.09052497 151 11 C149.2365625 10.38125 149.2365625 10.38125 147.4375 9.75 C143.12203486 8.31379131 138.76467468 7.06154567 134.375 5.875 C132.53035156 5.37613281 132.53035156 5.37613281 130.6484375 4.8671875 C123.19541885 3.09569913 116.14892709 2.8451692 108.51269531 2.82641602 C107.37532425 2.819729 106.23795319 2.81304199 105.06611633 2.80615234 C102.60530907 2.79214179 100.14448912 2.78023516 97.68366241 2.77020454 C93.79245838 2.75375548 89.90134941 2.73051954 86.01019287 2.70530701 C74.95004284 2.63429733 63.88984978 2.574194 52.82958984 2.52319336 C46.05877509 2.49189044 39.28807871 2.45021981 32.51735687 2.40299797 C29.93531057 2.386952 27.35323831 2.37464249 24.77115631 2.36609077 C21.17056226 2.35398612 17.57023616 2.32986008 13.96972656 2.30297852 C12.8974733 2.30238937 11.82522003 2.30180023 10.72047424 2.30119324 C9.74201035 2.29147491 8.76354645 2.28175659 7.75543213 2.27174377 C6.904491 2.26751184 6.05354988 2.2632799 5.17682266 2.25891972 C3 2 3 2 0 0 Z " fill="#DBD9D9" transform="translate(592,473)"/>
<path d="M0 0 C2.51204439 2.51204439 2.26025533 3.39377198 2.30859375 6.8671875 C2.33373047 7.83527344 2.35886719 8.80335938 2.38476562 9.80078125 C2.41978681 11.84238671 2.45106611 13.88405995 2.47851562 15.92578125 C2.50494141 16.89644531 2.53136719 17.86710938 2.55859375 18.8671875 C2.57204834 19.75519043 2.58550293 20.64319336 2.59936523 21.55810547 C3.07913603 24.48233914 3.97074486 25.86473674 6 28 C8.59855733 28.8042208 8.59855733 28.8042208 11 29 C11 30.98 11 32.96 11 35 C3.40431796 35.7595682 3.40431796 35.7595682 0.13671875 33.9921875 C-3.09409974 31.31453644 -5.78363221 28.72613783 -6.31884766 24.45629883 C-6.35026855 23.46654053 -6.38168945 22.47678223 -6.4140625 21.45703125 C-6.45273437 20.38388672 -6.49140625 19.31074219 -6.53125 18.20507812 C-6.5621875 17.08552734 -6.593125 15.96597656 -6.625 14.8125 C-6.68300781 13.11577148 -6.68300781 13.11577148 -6.7421875 11.38476562 C-6.83652533 8.5900075 -6.92211652 5.79525722 -7 3 C-3.535 2.505 -3.535 2.505 0 2 C0 1.34 0 0.68 0 0 Z " fill="#929292" transform="translate(331,528)"/>
<path d="M0 0 C2.0313489 0.4903256 4.06198238 0.9837262 6.08984375 1.48828125 C10.13914263 2.20030562 14.08943854 2.09344033 18.19067383 2.03295898 C24.40946489 1.95898561 30.59992592 2.16058392 36.8125 2.4375 C37.77373779 2.47689697 38.73497559 2.51629395 39.7253418 2.55688477 C40.62679932 2.59869873 41.52825684 2.6405127 42.45703125 2.68359375 C43.26116455 2.72025146 44.06529785 2.75690918 44.89379883 2.79467773 C47 3 47 3 50 4 C50 4.66 50 5.32 50 6 C50.85464844 6.12117187 51.70929687 6.24234375 52.58984375 6.3671875 C53.69457031 6.53476562 54.79929687 6.70234375 55.9375 6.875 C57.03964844 7.03742187 58.14179687 7.19984375 59.27734375 7.3671875 C60.17582031 7.57601562 61.07429687 7.78484375 62 8 C62.495 8.99 62.495 8.99 63 10 C60.58299013 9.85870713 58.16649571 9.71213513 55.75 9.5625 C55.06808594 9.52318359 54.38617187 9.48386719 53.68359375 9.44335938 C48.41816995 9.11107535 48.41816995 9.11107535 46.0914917 8.49305725 C43.63803297 7.91466833 41.38483919 7.83835117 38.86425781 7.79467773 C37.84350159 7.77473251 36.82274536 7.75478729 35.77105713 7.73423767 C34.67613953 7.71752518 33.58122192 7.70081268 32.453125 7.68359375 C31.3267865 7.66281265 30.200448 7.64203156 29.03997803 7.62062073 C25.44338051 7.55525667 21.84671023 7.49630115 18.25 7.4375 C15.8111904 7.3943023 13.37238816 7.3506876 10.93359375 7.30664062 C4.955806 7.1995887 -1.02205407 7.09779783 -7 7 C-4.66666667 4.66666667 -2.33333333 2.33333333 0 0 Z " fill="#CACAC9" transform="translate(654,510)"/>
<path d="M0 0 C5.77223875 4.82134228 11.04750594 9.97665967 16.30664062 15.34570312 C19.30221604 18.37868426 22.3140755 21.30920384 25.56640625 24.06640625 C32.93283997 30.41739661 39.60928781 37.55774203 46.44580078 44.46630859 C55.67895378 53.87056537 55.67895378 53.87056537 65.46679688 62.68554688 C67.0728704 64.06247361 68.59051289 65.42043903 70 67 C70 67.66 70 68.32 70 69 C70.85851562 69.36738281 70.85851562 69.36738281 71.734375 69.7421875 C74.38024402 71.21110099 76.14853139 72.95348244 78.25 75.125 C78.95640625 75.84945312 79.6628125 76.57390625 80.390625 77.3203125 C80.92171875 77.87460937 81.4528125 78.42890625 82 79 C85.76488042 77.27845212 88.15063897 75.00765886 91 72 C92.485 72.495 92.485 72.495 94 73 C86.29796101 80.82184849 86.29796101 80.82184849 81.8125 81.4375 C78.45115516 79.7194793 76.73889183 77.71219633 74.4375 74.76953125 C72.56282013 72.46184109 70.35048857 70.80806813 68 69 C66.33333333 67.33333333 64.66666667 65.66666667 63 64 C62.21625 63.401875 61.4325 62.80375 60.625 62.1875 C58.39526188 60.3293849 56.68676861 58.56530454 54.8125 56.375 C49.20001271 49.82914502 43.53842916 43.30407808 36 39 C33.6875 36.9375 33.6875 36.9375 32 35 C32 34.34 32 33.68 32 33 C31.34 33 30.68 33 30 33 C27.875 31.125 27.875 31.125 26 29 C26 28.34 26 27.68 26 27 C25.34 27 24.68 27 24 27 C22.44921875 25.42578125 22.44921875 25.42578125 20.6875 23.3125 C15.67306202 17.43492106 10.17150077 12.31272102 4.40234375 7.18359375 C2.19974259 5.18155465 0.08496952 3.1234909 -2 1 C-1.34 0.67 -0.68 0.34 0 0 Z " fill="#D1CFCF" transform="translate(285,342)"/>
<path d="M0 0 C0.33 0 0.66 0 1 0 C1.04676747 26.78219103 1.08201211 53.56437591 1.10362434 80.34659958 C1.113927 92.78267534 1.12796803 105.2187257 1.15087891 117.65478516 C1.1708437 128.49689573 1.18372378 139.3389879 1.18817699 150.18111634 C1.19077913 155.91932851 1.19687427 161.65748803 1.21146011 167.39568329 C1.22509282 172.80301137 1.22921117 178.21026539 1.22621536 183.61760902 C1.22676299 185.59601812 1.23070637 187.57442985 1.23841095 189.55282402 C1.2754362 199.55571673 1.20929418 209.18039371 -1 219 C-1.66 218.67 -2.32 218.34 -3 218 C-2.835 217.46246094 -2.67 216.92492187 -2.5 216.37109375 C-1.70152581 212.58457941 -1.98454661 208.82647702 -2.0625 204.97265625 C-2.01165217 201.74064134 -1.80141577 198.63621724 -1.50892639 195.42256165 C-0.82644297 186.70493407 -0.82364177 178.0052032 -0.79467773 169.26635742 C-0.78507852 167.41224459 -0.77506731 165.55813385 -0.76467896 163.70402527 C-0.73784491 158.70910015 -0.71672015 153.71416579 -0.69667697 148.71920943 C-0.67468341 143.48485273 -0.64736066 138.2505238 -0.62062073 133.01618958 C-0.57087341 123.12141651 -0.52586858 113.22662788 -0.48259836 103.3318246 C-0.43307166 92.0596515 -0.37821118 80.7875063 -0.32291877 69.51536024 C-0.20937475 46.34359956 -0.10247656 23.17181208 0 0 Z " fill="#171616" transform="translate(503,337)"/>
<path d="M0 0 C-0.33 0.99 -0.66 1.98 -1 3 C-6.22174288 4.08191207 -11.19327351 4.10005158 -16.49365234 4.02172852 C-17.89948074 4.0073172 -17.89948074 4.0073172 -19.33370972 3.99261475 C-22.41786511 3.95975054 -25.50187324 3.91937056 -28.5859375 3.87890625 C-30.7297006 3.85459284 -32.87346908 3.83074989 -35.01724243 3.80735779 C-40.64953765 3.74463843 -46.28173712 3.6755375 -51.91394043 3.60510254 C-57.66523899 3.53430921 -63.41660523 3.46955813 -69.16796875 3.40429688 C-80.4453869 3.27544117 -91.72271312 3.1398429 -103 3 C-103 2.34 -103 1.68 -103 1 C-90.75170918 0.86911701 -78.50341357 0.73869247 -66.25511169 0.60884857 C-60.56737022 0.54853868 -54.8796305 0.48807257 -49.19189453 0.42724609 C-43.70003645 0.3685202 -38.2081741 0.31020905 -32.71630859 0.25218201 C-30.62402185 0.23000268 -28.53173667 0.20767546 -26.43945312 0.18519592 C-23.5026082 0.15366799 -20.5657581 0.12267218 -17.62890625 0.09179688 C-16.33956932 0.07777077 -16.33956932 0.07777077 -15.02418518 0.0634613 C-10.01579827 0.01145691 -5.00866021 -0.00845632 0 0 Z " fill="#D5D2D3" transform="translate(700,588)"/>
<path d="M0 0 C7.25858217 -0.20966561 14.51649924 -0.36900529 21.77750969 -0.46630955 C25.15029634 -0.51304317 28.5209939 -0.57628132 31.89257812 -0.67895508 C35.78049692 -0.78878735 39.66549445 -0.83931709 43.5546875 -0.87890625 C44.74988007 -0.92535782 45.94507263 -0.97180939 47.17648315 -1.01966858 C54.04593797 -1.02376328 57.64522502 -0.09727797 62.84033203 4.55493164 C64.25706085 6.00779798 65.65521142 7.48030107 67 9 C66.01 9 65.02 9 64 9 C63.2061792 8.18362061 62.4123584 7.36724121 61.59448242 6.52612305 C56.9593905 2.49718791 51.30470005 3.42154514 45.48828125 3.58203125 C44.28310349 3.59384933 43.07792572 3.60566742 41.83622742 3.61784363 C37.99423896 3.65899707 34.15388959 3.73388842 30.3125 3.8125 C26.4605843 3.87515815 22.60880755 3.93063444 18.75663757 3.97502136 C16.3614542 4.00428266 13.96637876 4.04505289 11.5716095 4.0983429 C10.49006088 4.11463242 9.40851227 4.13092194 8.29418945 4.14770508 C7.34187943 4.16722733 6.3895694 4.18674957 5.40840149 4.2068634 C3 4 3 4 0 2 C0 1.34 0 0.68 0 0 Z " fill="#B7B6B8" transform="translate(347,588)"/>
<path d="M0 0 C0.66 0.33 1.32 0.66 2 1 C2 1.66 2 2.32 2 3 C3.32 3.33 4.64 3.66 6 4 C4.12185024 10.02984924 1.87454901 15.68602434 -0.80078125 21.40625 C-1.82741139 23.62671389 -2.77208784 25.85738004 -3.6875 28.125 C-5 31 -5 31 -7 32 C-9.28841092 19.86565304 -6.3919197 11.77118232 -1 1 C-0.67 0.67 -0.34 0.34 0 0 Z " fill="#CBCCCC" transform="translate(381,488)"/>
<path d="M0 0 C4.25943799 1.42494761 7.05651685 3.50668937 10.4375 6.4375 C11.49973022 7.34689134 12.56359779 8.25437287 13.62890625 9.16015625 C14.45672607 9.86422607 14.45672607 9.86422607 15.30126953 10.58251953 C18.10226391 12.91976779 20.9904644 15.14237106 23.875 17.375 C29.43046846 21.69223853 34.78985269 26.19924275 40.10766602 30.8046875 C43.79456539 33.99021833 47.55225462 37.03122672 51.42578125 39.98828125 C56.50500259 43.95762721 61.4438984 48.10181413 66.41015625 52.2109375 C69.53142478 54.79308394 72.66500542 57.35913963 75.80859375 59.9140625 C76.58396484 60.54626709 77.35933594 61.17847168 78.15820312 61.82983398 C79.65043812 63.04603108 81.14514152 64.25920728 82.64257812 65.46899414 C83.31611328 66.01934326 83.98964844 66.56969238 84.68359375 67.13671875 C85.57389282 67.85927856 85.57389282 67.85927856 86.48217773 68.59643555 C88 70 88 70 90 73 C81.86029724 69.20147205 75.24697828 62.52200671 68.50854492 56.68823242 C64.40434468 53.1538317 60.21636352 49.75767842 55.9375 46.4375 C50.19247796 41.97965784 44.62504138 37.34801658 39.09375 32.62890625 C30.02495677 24.89725117 20.71528827 17.42594701 11.296875 10.125 C10.65854736 9.6285498 10.02021973 9.13209961 9.36254883 8.62060547 C8.09671723 7.63715786 6.82838822 6.65691488 5.55737305 5.68017578 C1.1115271 2.22305419 1.1115271 2.22305419 0 0 Z " fill="#D8D6D6" transform="translate(442,621)"/>
<path d="M0 0 C1.67542976 0.28604898 3.34385343 0.61781233 5 1 C5 1.99 5 2.98 5 4 C4.34 4 3.68 4 3 4 C3.00222061 4.57612534 3.00444122 5.15225067 3.00672913 5.74583435 C3.02913376 11.83095672 3.04405053 17.91606707 3.05493164 24.0012207 C3.05991019 26.26164222 3.06669544 28.52206061 3.07543945 30.7824707 C3.1248332 43.8950583 3.00426807 56.92187097 2 70 C1.34 69.67 0.68 69.34 0 69 C0.00222061 68.19233688 0.00444122 67.38467377 0.00672913 66.55253601 C0.0267569 58.94522414 0.04198685 51.33792503 0.05181217 43.73059368 C0.05703324 39.81948917 0.06411685 35.90840643 0.07543945 31.99731445 C0.08629584 28.22369485 0.09228269 24.45009619 0.09487724 20.67646217 C0.09672652 19.23594648 0.10033762 17.79543194 0.10573006 16.35492516 C0.11297686 14.3390858 0.11340837 12.32322542 0.11352539 10.30737305 C0.115746 9.15931686 0.11796661 8.01126068 0.12025452 6.82841492 C0.12681725 3.92104512 0.12681725 3.92104512 -1 1 C-0.67 0.67 -0.34 0.34 0 0 Z " fill="#BDBCBD" transform="translate(274,394)"/>
<path d="M0 0 C-0.28875 0.845625 -0.5775 1.69125 -0.875 2.5625 C-2.08396743 6.00155656 -2.08396743 6.00155656 -2.6875 9.6875 C-4 13 -4 13 -5.68359375 14.109375 C-7.625 14.9375 -7.625 14.9375 -11 16 C-11 16.99 -11 17.98 -11 19 C-12.32 19 -13.64 19 -15 19 C-15.08160748 17.10489301 -15.13946459 15.20875496 -15.1875 13.3125 C-15.22230469 12.25675781 -15.25710938 11.20101562 -15.29296875 10.11328125 C-14.95997011 6.57461575 -14.14646386 4.80767341 -12 2 C-7.66538964 -0.40811687 -4.80023636 -1.60007879 0 0 Z " fill="#A2A4A5" transform="translate(781,619)"/>
<path d="M0 0 C7.02710215 0.6048763 13.99747127 0.7472748 21.04768372 0.78065491 C23.02562927 0.7955043 23.02562927 0.7955043 25.04353333 0.81065369 C28.61494519 0.83736497 32.18636982 0.85855428 35.75782418 0.87865567 C39.50674446 0.90072715 43.25562696 0.92801093 47.0045166 0.95471191 C54.08371472 1.0043559 61.16293413 1.04939803 68.24217337 1.09273428 C76.31006095 1.14235064 84.37791058 1.19717719 92.44576132 1.25241387 C109.02356429 1.36579878 125.60140223 1.47273016 142.17927551 1.57533264 C142.17927551 1.90533264 142.17927551 2.23533264 142.17927551 2.57533264 C92.01927551 2.57533264 41.85927551 2.57533264 -9.82072449 2.57533264 C-7.79073838 -1.48463956 -3.89977098 -0.38215101 0 0 Z " fill="#8C8B8B" transform="translate(560.8207244873047,631.4246673583984)"/>
<path d="M0 0 C0.33 0.99 0.66 1.98 1 3 C3.475 3.495 3.475 3.495 6 4 C6.33 4.99 6.66 5.98 7 7 C6.39414062 6.979375 5.78828125 6.95875 5.1640625 6.9375 C-2.05678262 7.11524388 -5.72449815 9.54327527 -11.06640625 14.28515625 C-13 16 -13 16 -14 16 C-14.88709677 6.76762246 -14.88709677 6.76762246 -12.9453125 2.8984375 C-8.89595597 -1.72001779 -5.72900567 -1.38286344 0 0 Z " fill="#DADCDC" transform="translate(728,355)"/>
<path d="M0 0 C1.71198377 0.0261564 3.42407332 0.04606385 5.13619995 0.06002808 C9.61401605 0.11315066 14.0853363 0.25031792 18.56060791 0.40588379 C23.13846946 0.54986155 27.71739558 0.61319837 32.296875 0.68359375 C41.26064644 0.83314107 50.21962426 1.07162404 59.1796875 1.3671875 C59.1796875 1.6971875 59.1796875 2.0271875 59.1796875 2.3671875 C58.62132706 2.37749496 58.06296661 2.38780243 57.48768616 2.39842224 C54.771731 2.44880339 52.05578698 2.49976087 49.33984375 2.55078125 C48.31882568 2.56978989 47.29780762 2.58879852 46.24584961 2.60838318 C40.64395221 2.71445803 35.04248575 2.83024766 29.44116211 2.96337891 C27.19775842 3.01614271 24.95435024 3.06871589 22.7109375 3.12109375 C21.6087941 3.14691528 20.5066507 3.17273682 19.37110901 3.19934082 C13.478254 3.32780268 7.60420599 3.37029002 1.7109375 3.26953125 C-10.00566525 2.73540659 -10.00566525 2.73540659 -19.85180664 8.12548828 C-21.78968659 10.38210092 -23.30303565 12.81397679 -24.8203125 15.3671875 C-26.13307801 17.05010231 -27.46042585 18.7221149 -28.8203125 20.3671875 C-26.69795008 3.19822961 -14.91267601 -0.67346337 0 0 Z " fill="#D1CECF" transform="translate(625.8203125,404.6328125)"/>
<path d="M0 0 C0.33 0 0.66 0 1 0 C1.01030746 0.96022064 1.02061493 1.92044128 1.03123474 2.90975952 C1.12885641 11.94491344 1.2315797 20.97999676 1.33933926 30.01503563 C1.3945786 34.66038996 1.44800022 39.30575057 1.49731445 43.95117188 C1.54494309 48.43158181 1.59728535 52.91191382 1.65294075 57.39223099 C1.67337111 59.10428561 1.69208306 60.81636161 1.70907402 62.52845383 C1.73310298 64.920578 1.7631595 67.3125543 1.79467773 69.70458984 C1.8004332 70.41740616 1.80618866 71.13022247 1.81211853 71.86463928 C1.82056111 75.55649938 1.82056111 75.55649938 3 79 C3.08372659 80.52148326 3.10730027 82.04655778 3.09765625 83.5703125 C3.09443359 84.46621094 3.09121094 85.36210938 3.08789062 86.28515625 C3.07951172 87.22230469 3.07113281 88.15945313 3.0625 89.125 C3.05798828 90.06988281 3.05347656 91.01476562 3.04882812 91.98828125 C3.03702357 94.32558387 3.02055759 96.66276061 3 99 C2.01 98.67 1.02 98.34 0 98 C0 65.66 0 33.32 0 0 Z " fill="#EAE8E9" transform="translate(275,521)"/>
<path d="M0 0 C-0.33 1.65 -0.66 3.3 -1 5 C-1.65226563 4.86980469 -2.30453125 4.73960937 -2.9765625 4.60546875 C-8.05863004 3.63316475 -8.05863004 3.63316475 -12.82421875 5.046875 C-14.2247135 6.35547376 -15.61279764 7.67731868 -17 9 C-19.875 9.3125 -19.875 9.3125 -22 9 C-22.33 7.68 -22.66 6.36 -23 5 C-15.77327643 -1.10256657 -9.05713027 -6.03808685 0 0 Z " fill="#B8BCBC" transform="translate(789,346)"/>
<path d="M0 0 C2.48340903 -0.26727014 4.71472068 -0.34866334 7.1953125 -0.29296875 C8.25647781 -0.28660149 8.25647781 -0.28660149 9.33908081 -0.28010559 C11.60143905 -0.26329547 13.86291048 -0.22564128 16.125 -0.1875 C17.65753923 -0.17245607 19.1900924 -0.15876716 20.72265625 -0.14648438 C24.48211318 -0.11338462 28.24090618 -0.06158825 32 0 C32 0.66 32 1.32 32 2 C32.85464844 2.12117187 33.70929687 2.24234375 34.58984375 2.3671875 C35.69457031 2.53476562 36.79929687 2.70234375 37.9375 2.875 C39.59072266 3.11863281 39.59072266 3.11863281 41.27734375 3.3671875 C42.62505859 3.68042969 42.62505859 3.68042969 44 4 C44.495 4.99 44.495 4.99 45 6 C42.58299013 5.85870713 40.16649571 5.71213513 37.75 5.5625 C37.06808594 5.52318359 36.38617187 5.48386719 35.68359375 5.44335938 C30.40082933 5.10998104 30.40082933 5.10998104 28.17773438 4.5 C25.2689021 3.83214254 22.46667644 3.77848516 19.484375 3.68359375 C18.23398437 3.64169922 16.98359375 3.59980469 15.6953125 3.55664062 C14.39335938 3.51732422 13.09140625 3.47800781 11.75 3.4375 C10.43257812 3.39431641 9.11515625 3.35113281 7.7578125 3.30664062 C4.50531212 3.20058083 1.25273608 3.09851976 -2 3 C-1.34 2.01 -0.68 1.02 0 0 Z " fill="#E2E1E0" transform="translate(672,514)"/>
<path d="M0 0 C0.2475 0.556875 0.495 1.11375 0.75 1.6875 C2.25686838 4.47520651 3.8181426 6.69346503 6 9 C8.63460948 9.87943404 8.63460948 9.87943404 11 10 C11 11.98 11 13.96 11 16 C6.38082942 16.46191706 2.36512173 16.82220061 -1.5 13.9375 C-4.40909257 10.51931623 -4.82642417 8.42618358 -5 4 C-4.0409375 3.8453125 -4.0409375 3.8453125 -3.0625 3.6875 C-2.381875 3.460625 -1.70125 3.23375 -1 3 C-0.67 2.01 -0.34 1.02 0 0 Z " fill="#C5C5C7" transform="translate(331,547)"/>
<path d="M0 0 C10.56 0 21.12 0 32 0 C32.495 0.99 32.495 0.99 33 2 C32.34 2 31.68 2 31 2 C31 2.66 31 3.32 31 4 C22.42 4 13.84 4 5 4 C5 3.34 5 2.68 5 2 C3.35 1.67 1.7 1.34 0 1 C0 0.67 0 0.34 0 0 Z " fill="#4A4A4A" transform="translate(666,634)"/>
<path d="M0 0 C1.2380014 3.57644848 0.74926071 6.33694766 0 10 C0.66 10.33 1.32 10.66 2 11 C0.41906946 12.12837409 -1.16484716 13.25256518 -2.75 14.375 C-3.63171875 15.00148438 -4.5134375 15.62796875 -5.421875 16.2734375 C-9.63771712 19.09677419 -9.63771712 19.09677419 -12 20 C-12.99 19.67 -13.98 19.34 -15 19 C-14.38125 18.62875 -13.7625 18.2575 -13.125 17.875 C-10.41528496 15.48407497 -10.02854814 13.42849379 -9 10 C-6.96924107 5.84177933 -5.01464432 4.21861923 -1 2 C-0.67 1.34 -0.34 0.68 0 0 Z " fill="#8A8A8D" transform="translate(766,628)"/>
<path d="M0 0 C0.33 0 0.66 0 1 0 C1.87192861 12.2040515 2.12653137 24.33009146 2.0625 36.5625 C2.05746548 38.26757678 2.05290609 39.97265504 2.04882812 41.67773438 C2.03799884 45.78519378 2.02084659 49.89257973 2 54 C2.66 54.33 3.32 54.66 4 55 C2.68 55.99 1.36 56.98 0 58 C0 38.86 0 19.72 0 0 Z " fill="#626362" transform="translate(460,551)"/>
<path d="M0 0 C-0.33 0.99 -0.66 1.98 -1 3 C-6.12521337 4.07045596 -10.92149448 4.04976654 -16.1171875 3.87890625 C-16.97434357 3.85529526 -17.83149963 3.83168427 -18.71463013 3.80735779 C-21.43494148 3.73118088 -24.1549345 3.64696063 -26.875 3.5625 C-28.72654726 3.50923321 -30.57810975 3.45649317 -32.4296875 3.40429688 C-36.95332411 3.27562847 -41.4766927 3.13974909 -46 3 C-45.67 2.34 -45.34 1.68 -45 1 C-39.87715432 0.85616861 -34.75427065 0.7138046 -29.63134766 0.57275391 C-27.89142782 0.52464701 -26.15151869 0.47615097 -24.41162109 0.42724609 C-21.89944179 0.35670352 -19.38722628 0.28759695 -16.875 0.21875 C-16.10696045 0.19687622 -15.3389209 0.17500244 -14.54760742 0.15246582 C-9.69642816 0.02124583 -4.85297784 -0.01925785 0 0 Z " fill="#DCDADB" transform="translate(700,588)"/>
<path d="M0 0 C0.33 0 0.66 0 1 0 C1.05104406 7.6130891 1.08587707 15.22613344 1.10986328 22.83935547 C1.11987133 25.42498423 1.1334819 28.01060181 1.15087891 30.59619141 C1.17535674 34.3297808 1.18653544 38.06321951 1.1953125 41.796875 C1.20563507 42.93799744 1.21595764 44.07911987 1.22659302 45.25482178 C1.22761421 52.69252668 0.45357021 59.70629351 -1 67 C-1.66 66.67 -2.32 66.34 -3 66 C-2.835 65.46246094 -2.67 64.92492187 -2.5 64.37109375 C-1.70152581 60.58457941 -1.98454661 56.82647702 -2.0625 52.97265625 C-2.01082178 49.68785937 -1.81264912 46.5040324 -1.53515625 43.234375 C-0.83020072 34.56168139 -0.64971532 25.8831309 -0.4375 17.1875 C-0.39418166 15.51236197 -0.3505638 13.83723166 -0.30664062 12.16210938 C-0.20098232 8.10815339 -0.09934835 4.05411533 0 0 Z " fill="#262525" transform="translate(503,489)"/>
<path d="M0 0 C3.82246588 0.55959523 5.58971741 2.21317357 8.25 4.9375 C8.95640625 5.64777344 9.6628125 6.35804688 10.390625 7.08984375 C12 9 12 9 12 11 C12.57234375 11.24492187 13.1446875 11.48984375 13.734375 11.7421875 C16.38024402 13.21110099 18.14853139 14.95348244 20.25 17.125 C20.95640625 17.84945313 21.6628125 18.57390625 22.390625 19.3203125 C22.92171875 19.87460937 23.4528125 20.42890625 24 21 C27.76488042 19.27845212 30.15063897 17.00765886 33 14 C33.99 14.33 34.98 14.66 36 15 C28.29796101 22.82184849 28.29796101 22.82184849 23.8125 23.4375 C20.45115516 21.7194793 18.73889183 19.71219633 16.4375 16.76953125 C14.56282013 14.46184109 12.35048857 12.80806813 10 11 C8.33333333 9.33333333 6.66666667 7.66666667 5 6 C3.6078125 4.9171875 3.6078125 4.9171875 2.1875 3.8125 C1.465625 3.214375 0.74375 2.61625 0 2 C0 1.34 0 0.68 0 0 Z " fill="#B2B0B1" transform="translate(343,400)"/>
<path d="M0 0 C0.66 -0.33 1.32 -0.66 2 -1 C1.52060632 3.71403788 1.03165952 7.66579301 -1 12 C-3.31 11.34 -5.62 10.68 -8 10 C-8.21952523 6.15830842 -7.72664863 3.45329726 -6 0 C-3.4791665 -1.26041675 -2.64903564 -0.66225891 0 0 Z " fill="#B7B9BA" transform="translate(360,550)"/>
<path d="M0 0 C-1.59415503 3.91209308 -4.13893332 6.37218086 -7.125 9.3125 C-7.6214502 9.80250488 -8.11790039 10.29250977 -8.62939453 10.79736328 C-11.89241272 13.9929071 -15.26707957 17.00591294 -18.7421875 19.96484375 C-24.04430856 24.74409128 -28.98849799 29.91974263 -34 35 C-34.66 34.67 -35.32 34.34 -36 34 C-31.201479 29.15091998 -26.39525288 24.30957901 -21.58349609 19.47363281 C-19.94627709 17.82633362 -18.31085455 16.17724699 -16.67724609 14.52636719 C-14.33376447 12.15872596 -11.9839743 9.79751153 -9.6328125 7.4375 C-8.89942657 6.6937915 -8.16604065 5.95008301 -7.41043091 5.18383789 C-6.7298764 4.50313232 -6.0493219 3.82242676 -5.34814453 3.12109375 C-4.74857941 2.5170874 -4.14901428 1.91308105 -3.53128052 1.29077148 C-2 0 -2 0 0 0 Z " fill="#E5E3E5" transform="translate(456,338)"/>
<path d="M0 0 C0 3.77910478 -0.99703962 4.46106101 -3.5 7.1875 C-4.1496875 7.90292969 -4.799375 8.61835937 -5.46875 9.35546875 C-5.9740625 9.89816406 -6.479375 10.44085937 -7 11 C-0.22120153 10.89937511 -0.22120153 10.89937511 5.625 7.9375 C6.07875 7.298125 6.5325 6.65875 7 6 C7.66 6.33 8.32 6.66 9 7 C5.21759403 12.6847995 5.21759403 12.6847995 2.08740234 13.49511719 C-0.07254392 13.58962436 -2.15592794 13.52532406 -4.3125 13.375 C-5.05306641 13.34792969 -5.79363281 13.32085938 -6.55664062 13.29296875 C-8.37235998 13.22268284 -10.18656801 13.11507089 -12 13 C-10.44997253 9.11602311 -7.99523379 6.97020381 -4.875 4.25 C-3.96492188 3.45078125 -3.05484375 2.6515625 -2.1171875 1.828125 C-1.06917969 0.92320312 -1.06917969 0.92320312 0 0 Z " fill="#B7B9B8" transform="translate(514,621)"/>
<path d="M0 0 C1.67542976 0.28604898 3.34385343 0.61781233 5 1 C5 1.99 5 2.98 5 4 C4.34 4 3.68 4 3 4 C3 20.17 3 36.34 3 53 C2.67 53 2.34 53 2 53 C2 36.83 2 20.66 2 4 C1.34 4 0.68 4 0 4 C-0.33 3.01 -0.66 2.02 -1 1 C-0.67 0.67 -0.34 0.34 0 0 Z " fill="#AAAAAA" transform="translate(274,394)"/>
<path d="M0 0 C3 3.625 3 3.625 3 7 C0.15697309 8.42151345 -1.83025472 8.23922606 -5 8 C-7.4429441 7.15794312 -9.66283767 6.12183792 -12 5 C-12 4.67 -12 4.34 -12 4 C-8 2.66666667 -4 1.33333333 0 0 Z " fill="#B7B7B8" transform="translate(328,523)"/>
<path d="M0 0 C1.60246582 0.03927612 1.60246582 0.03927612 3.23730469 0.0793457 C4.97753906 0.10351562 4.97753906 0.10351562 6.75292969 0.12817383 C7.95949219 0.17006836 9.16605469 0.21196289 10.40917969 0.25512695 C12.24222656 0.28896484 12.24222656 0.28896484 14.11230469 0.32348633 C17.12916471 0.38240938 20.14355483 0.4646343 23.15917969 0.56762695 C23.15917969 0.89762695 23.15917969 1.22762695 23.15917969 1.56762695 C22.45422363 1.54031494 21.74926758 1.51300293 21.02294922 1.48486328 C7.03277506 0.38319765 7.03277506 0.38319765 -5.58691406 4.9074707 C-8.03463492 7.68304458 -9.95348176 10.39169174 -11.84082031 13.56762695 C-13.15358583 15.25054176 -14.48093366 16.92255436 -15.84082031 18.56762695 C-15.30826596 14.04091499 -13.62522159 11.14757146 -10.84082031 7.56762695 C-9.52434913 6.86825163 -8.1905988 6.20033562 -6.84082031 5.56762695 C-6.26493164 4.73336182 -5.68904297 3.89909668 -5.09570312 3.03955078 C-2.84082031 0.56762695 -2.84082031 0.56762695 0 0 Z " fill="#B1B1B2" transform="translate(612.8408203125,406.432373046875)"/>
<path d="M0 0 C2 2 2 2 2.22705078 4.06298828 C2.21657715 4.89040527 2.20610352 5.71782227 2.1953125 6.5703125 C2.18886719 7.46621094 2.18242187 8.36210938 2.17578125 9.28515625 C2.15902344 10.22230469 2.14226562 11.15945313 2.125 12.125 C2.11597656 13.06988281 2.10695313 14.01476562 2.09765625 14.98828125 C2.07404522 17.32577292 2.04111516 19.66276123 2 22 C1.01 21.67 0.02 21.34 -1 21 C-1.02888146 17.68751813 -1.04675799 14.37506833 -1.0625 11.0625 C-1.07087891 10.11697266 -1.07925781 9.17144531 -1.08789062 8.19726562 C-1.09111328 7.29814453 -1.09433594 6.39902344 -1.09765625 5.47265625 C-1.10289307 4.64000244 -1.10812988 3.80734863 -1.11352539 2.94946289 C-1 1 -1 1 0 0 Z " fill="#DEDEDF" transform="translate(276,598)"/>
<path d="M0 0 C2.38771735 2.38771735 2.31289224 3.22854514 2.5625 6.5 C2.81036169 9.87644563 2.81036169 9.87644563 4 13 C0.71023192 14.09658936 -0.71303767 13.79953138 -4 13 C-3.50269348 8.02693484 -2.44697666 4.36200187 0 0 Z " fill="#AAABAD" transform="translate(372,508)"/>
<path d="M0 0 C1.15892509 0.06871056 1.15892509 0.06871056 2.34126282 0.1388092 C4.80730271 0.28627946 7.27275439 0.44186549 9.73828125 0.59765625 C11.41077492 0.69910285 13.08330075 0.80002073 14.75585938 0.90039062 C18.85456498 1.1475137 22.95276166 1.40191622 27.05078125 1.66015625 C27.05078125 1.99015625 27.05078125 2.32015625 27.05078125 2.66015625 C14.18078125 2.66015625 1.31078125 2.66015625 -11.94921875 2.66015625 C-9.7141991 -1.80988304 -4.26664585 -0.27819911 0 0 Z " fill="#807E7F" transform="translate(562.94921875,631.33984375)"/>
<path d="M0 0 C5.46924342 0.51318094 9.52825096 1.90044906 14.375 4.4375 C15.31666016 4.90639648 15.31666016 4.90639648 16.27734375 5.38476562 C20.86374864 7.72749728 20.86374864 7.72749728 22 10 C20.824375 9.5875 19.64875 9.175 18.4375 8.75 C11.7197402 6.49998109 4.85393172 4.77895198 -2 3 C-1.34 2.01 -0.68 1.02 0 0 Z " fill="#D7D6D6" transform="translate(721,474)"/>
<path d="M0 0 C-0.66 1.32 -1.32 2.64 -2 4 C5.26 4 12.52 4 20 4 C20 4.33 20 4.66 20 5 C11.75 5 3.5 5 -5 5 C-5.33 4.01 -5.66 3.02 -6 2 C-7.65 2 -9.3 2 -11 2 C-7.36576791 -0.32590854 -4.22911669 -0.16265833 0 0 Z " fill="#8D8C8D" transform="translate(740,357)"/>
<path d="M0 0 C6.56570432 -0.44766166 12.78511008 0.86301892 19 3 C19.33 3.66 19.66 4.32 20 5 C17.62412376 4.88513575 15.24984829 4.75841844 12.875 4.625 C12.20984375 4.5940625 11.5446875 4.563125 10.859375 4.53125 C6.60178738 4.28080367 2.97914217 3.52471803 -1 2 C-0.67 1.34 -0.34 0.68 0 0 Z " fill="#E9E8E8" transform="translate(697,515)"/>
<path d="M0 0 C4.38512877 1.44837282 7.27078187 3.68230233 10.75 6.6875 C11.80105754 7.58583698 12.85315162 8.48296255 13.90625 9.37890625 C14.42445313 9.82121582 14.94265625 10.26352539 15.4765625 10.71923828 C18.8941415 13.59241447 22.45042301 16.29299937 26 19 C22.63221039 19 22.21918145 18.68028695 19.6875 16.6875 C18.99914062 16.14996094 18.31078125 15.61242187 17.6015625 15.05859375 C16.74304688 14.37925781 15.88453125 13.69992187 15 13 C13.80027534 12.07318721 12.59968924 11.14748891 11.3984375 10.22265625 C10.11941821 9.23225293 8.84077441 8.24136452 7.5625 7.25 C6.93496826 6.76619873 6.30743652 6.28239746 5.66088867 5.78393555 C1.11463884 2.22927768 1.11463884 2.22927768 0 0 Z " fill="#D2D0D0" transform="translate(442,621)"/>
<path d="M0 0 C0.33 1.65 0.66 3.3 1 5 C0.01 5.33 -0.98 5.66 -2 6 C-2.99 5.34 -3.98 4.68 -5 4 C-6.65549531 3.61500109 -8.3222433 3.27206865 -10 3 C-9.67 2.01 -9.34 1.02 -9 0 C-5.8033 -1.37001429 -3.30096158 -0.8252404 0 0 Z " fill="#C6C6C6" transform="translate(788,345)"/>
<path d="M0 0 C5.66129431 4.69766975 10.85228904 9.74723372 16 15 C15.01 15.33 14.02 15.66 13 16 C8 11 3 6 -2 1 C-1.34 0.67 -0.68 0.34 0 0 Z " fill="#EBE9E9" transform="translate(285,342)"/>
<path d="M0 0 C-6.57124652 3.73659116 -13.44209427 6.18022716 -21 7 C-23.390625 6.0703125 -23.390625 6.0703125 -25 5 C-23.80375 4.7525 -22.6075 4.505 -21.375 4.25 C-15.80874826 3.03376956 -10.38820226 1.3698611 -4.94140625 -0.29296875 C-2 -1 -2 -1 0 0 Z " fill="#6F6E6D" transform="translate(708,330)"/>
<path d="M0 0 C7.38461538 -0.49230769 7.38461538 -0.49230769 10.5 2 C10.995 2.66 11.49 3.32 12 4 C9.36 3.67 6.72 3.34 4 3 C3.67 3.66 3.34 4.32 3 5 C3.598125 5.103125 4.19625 5.20625 4.8125 5.3125 C7.28243264 6.08876455 8.32251235 7.07088921 10 9 C9.67 9.66 9.34 10.32 9 11 C8.4225 10.360625 7.845 9.72125 7.25 9.0625 C5.01937599 7.01776132 3.92563609 6.41794801 1 6 C0.67 4.02 0.34 2.04 0 0 Z " fill="#DEE0E0" transform="translate(395,482)"/>
<path d="M0 0 C0 0.99 0 1.98 0 3 C1.98 3 3.96 3 6 3 C4.13822442 4.86177558 2.72351818 5.93885762 0.05859375 6.1640625 C-1.96133531 6.12686307 -3.98074569 6.06410331 -6 6 C-6.99 6.33 -7.98 6.66 -9 7 C-9 6.34 -9 5.68 -9 5 C-3.64285714 0 -3.64285714 0 0 0 Z " fill="#CCCBCB" transform="translate(647,675)"/>
<path d="M0 0 C0.33 0.99 0.66 1.98 1 3 C-2.96 6.96 -6.92 10.92 -11 15 C-11.33 14.01 -11.66 13.02 -12 12 C-8.04 8.04 -4.08 4.08 0 0 Z " fill="#A09EA0" transform="translate(596,589)"/>
<path d="M0 0 C4.95 0 9.9 0 15 0 C14.01 1.485 14.01 1.485 13 3 C9.7421875 3.29296875 9.7421875 3.29296875 5.875 3.1875 C3.95300781 3.14689453 3.95300781 3.14689453 1.9921875 3.10546875 C1.00476563 3.07066406 0.01734375 3.03585937 -1 3 C-0.67 2.01 -0.34 1.02 0 0 Z " fill="#585858" transform="translate(672,635)"/>
<path d="M0 0 C0.99 0.66 1.98 1.32 3 2 C3.3125 5.5 3.3125 5.5 3 9 C2.34 9.66 1.68 10.32 1 11 C1 10.34 1 9.68 1 9 C0.01 8.67 -0.98 8.34 -2 8 C-2 6.02 -2 4.04 -2 2 C-1.34 2 -0.68 2 0 2 C0 1.34 0 0.68 0 0 Z " fill="#E3E2E3" transform="translate(747,546)"/>
<path d="M0 0 C0.66 0.33 1.32 0.66 2 1 C-2.75 5.875 -2.75 5.875 -5 7 C-3.70700306 4.11562221 -2.34058637 2.12780579 0 0 Z M-7 7 C-6.34 7.33 -5.68 7.66 -5 8 C-8.63 11.63 -12.26 15.26 -16 19 C-16.66 18.67 -17.32 18.34 -18 18 C-14.37 14.37 -10.74 10.74 -7 7 Z " fill="#868686" transform="translate(405,388)"/>
<path d="M0 0 C0.99 0.33 1.98 0.66 3 1 C-4.79087208 8.91206342 -4.79087208 8.91206342 -9.4375 9.25 C-12 8 -12 8 -13.375 5.9375 C-13.58125 5.298125 -13.7875 4.65875 -14 4 C-13.13375 4.495 -13.13375 4.495 -12.25 5 C-9.80116138 6.27075898 -9.80116138 6.27075898 -6 6 C-4.23682295 4.7187757 -4.23682295 4.7187757 -2.75 3 C-2.22921875 2.443125 -1.7084375 1.88625 -1.171875 1.3125 C-0.78515625 0.879375 -0.3984375 0.44625 0 0 Z " fill="#BBB9BA" transform="translate(376,414)"/>
<path d="M0 0 C0 0.66 0 1.32 0 2 C-1.47226402 3.27596215 -2.95036127 4.54688288 -4.4765625 5.7578125 C-6.0966411 7.02104941 -6.0966411 7.02104941 -7.6875 8.8125 C-9 10 -9 10 -12 10 C-12.33 9.01 -12.66 8.02 -13 7 C-12.113125 6.5875 -11.22625 6.175 -10.3125 5.75 C-7.00316344 4.00167125 -3.70222704 0 0 0 Z " fill="#969697" transform="translate(741,310)"/>
<path d="M0 0 C0.66 0.33 1.32 0.66 2 1 C2 1.66 2 2.32 2 3 C0.84371094 3.19916016 0.84371094 3.19916016 -0.3359375 3.40234375 C-1.33882812 3.57894531 -2.34171875 3.75554688 -3.375 3.9375 C-4.87160156 4.19853516 -4.87160156 4.19853516 -6.3984375 4.46484375 C-8.96909656 4.87712062 -8.96909656 4.87712062 -11 6 C-8.62122382 0.51051651 -5.81000875 -0.37085162 0 0 Z " fill="#ADB3B4" transform="translate(738,644)"/>
<path d="M0 0 C-0.33 1.32 -0.66 2.64 -1 4 C-3.64 4.33 -6.28 4.66 -9 5 C-9.66 4.01 -10.32 3.02 -11 2 C-7.17679443 0.57741188 -4.08718695 -0.24042276 0 0 Z " fill="#BFBEBF" transform="translate(708,585)"/>
<path d="M0 0 C2.375 2.75 2.375 2.75 4 5 C1.51476619 3.89545164 -0.1565913 2.85248646 -2.15625 0.96875 C-5.68557441 -1.47462843 -8.6582171 -1.66254141 -12.8125 -1.75 C-13.50537109 -1.77964844 -14.19824219 -1.80929687 -14.91210938 -1.83984375 C-16.60746213 -1.90999628 -18.30373312 -1.95732662 -20 -2 C-20 -2.33 -20 -2.66 -20 -3 C-4.9026764 -4.9026764 -4.9026764 -4.9026764 0 0 Z " fill="#CFCDCD" transform="translate(410,593)"/>
<path d="M0 0 C8.7595092 -0.44539877 8.7595092 -0.44539877 13 3 C13 3.66 13 4.32 13 5 C13.99 5.33 14.98 5.66 16 6 C13.55492066 6.87324262 12.32299678 7.10151327 9.8125 6.3125 C8 5 8 5 7.25 2.875 C7.12625 1.946875 7.12625 1.946875 7 1 C4.69 1 2.38 1 0 1 C0 0.67 0 0.34 0 0 Z " fill="#909192" transform="translate(718,651)"/>
<path d="M0 0 C-0.66 0.66 -1.32 1.32 -2 2 C-1.34 2.66 -0.68 3.32 0 4 C-3.63 4 -7.26 4 -11 4 C-7.65667474 -0.27945633 -5.29105716 -0.4070044 0 0 Z " fill="#A9A9A9" transform="translate(670,635)"/>
<path d="M0 0 C3.85025879 0.60355408 6.86101159 1.76772603 10.3125 3.5625 C11.19550781 4.01753906 12.07851563 4.47257813 12.98828125 4.94140625 C13.65214844 5.29074219 14.31601562 5.64007812 15 6 C12.31485266 7.03274898 11.2078412 7.07566569 8.45703125 6.07421875 C7.58433594 5.61660156 6.71164062 5.15898438 5.8125 4.6875 C4.93207031 4.23761719 4.05164063 3.78773438 3.14453125 3.32421875 C1 2 1 2 0 0 Z " fill="#C0BEBF" transform="translate(459,687)"/>
<path d="M0 0 C0.66 1.32 1.32 2.64 2 4 C-0.36292656 6.52588702 -1.66462511 7.88820837 -5 9 C-5 7.35 -5 5.7 -5 4 C-4.0409375 3.8453125 -4.0409375 3.8453125 -3.0625 3.6875 C-2.381875 3.460625 -1.70125 3.23375 -1 3 C-0.67 2.01 -0.34 1.02 0 0 Z " fill="#AEADAE" transform="translate(331,547)"/>
<path d="M0 0 C2.31459868 1.81817001 2.95377187 2.75615543 3.51171875 5.69921875 C3.59873047 7.17841797 3.59873047 7.17841797 3.6875 8.6875 C3.75324219 9.68136719 3.81898438 10.67523437 3.88671875 11.69921875 C3.92410156 12.45847656 3.96148438 13.21773437 4 14 C1.68516093 11.68516093 1.2391044 10.10977477 0.3125 7 C-0.09548828 5.6696875 -0.09548828 5.6696875 -0.51171875 4.3125 C-1 2 -1 2 0 0 Z " fill="#807F7F" transform="translate(789,529)"/>
<path d="M0 0 C0.33 0 0.66 0 1 0 C1 3.96 1 7.92 1 12 C0.67 12 0.34 12 0 12 C-0.33 9.69 -0.66 7.38 -1 5 C-2.65 5 -4.3 5 -6 5 C-6.33 4.34 -6.66 3.68 -7 3 C-3.535 2.505 -3.535 2.505 0 2 C0 1.34 0 0.68 0 0 Z " fill="#A5A5A6" transform="translate(331,528)"/>
<path d="M0 0 C0.99 0.66 1.98 1.32 3 2 C2.04270084 3.12588014 1.08412105 4.2506715 0.125 5.375 C-0.40867187 6.00148438 -0.94234375 6.62796875 -1.4921875 7.2734375 C-2.61432007 8.55836651 -3.79371975 9.79371975 -5 11 C-4.46884894 6.48521602 -2.63379708 3.65333143 0 0 Z " fill="#9F9FA0" transform="translate(602,414)"/>
<path d="M0 0 C0 3 0 3 -1.75 4.82421875 C-2.4925 5.43910156 -3.235 6.05398438 -4 6.6875 C-4.7425 7.31011719 -5.485 7.93273437 -6.25 8.57421875 C-6.8275 9.04472656 -7.405 9.51523437 -8 10 C-8.66 9.67 -9.32 9.34 -10 9 C-6.7 6.03 -3.4 3.06 0 0 Z " fill="#CCCFCF" transform="translate(514,621)"/>
<path d="M0 0 C-0.99 0.33 -1.98 0.66 -3 1 C-3 2.32 -3 3.64 -3 5 C-3.99 4.67 -4.98 4.34 -6 4 C-6 3.34 -6 2.68 -6 2 C-7.65 2 -9.3 2 -11 2 C-7.36576791 -0.32590854 -4.22911669 -0.16265833 0 0 Z " fill="#A7A7A7" transform="translate(740,357)"/>
<path d="M0 0 C4.98012761 1.50912958 8.24259942 4.55661849 12 8 C11.01 8.33 10.02 8.66 9 9 C7.49704815 7.69088122 5.99770689 6.37761608 4.5 5.0625 C3.6646875 4.33160156 2.829375 3.60070312 1.96875 2.84765625 C1.3190625 2.23792969 0.669375 1.62820313 0 1 C0 0.67 0 0.34 0 0 Z " fill="#DFDEDD" transform="translate(467,641)"/>
<path d="M0 0 C5.28 0.33 10.56 0.66 16 1 C16 1.33 16 1.66 16 2 C13.89807303 2.24887295 11.79326036 2.4734719 9.6875 2.6875 C8.51574219 2.81511719 7.34398437 2.94273437 6.13671875 3.07421875 C3 3 3 3 0 0 Z " fill="#DDDCDD" transform="translate(347,589)"/>
<path d="M0 0 C1.98 0 3.96 0 6 0 C6 0.66 6 1.32 6 2 C5.01 2.495 5.01 2.495 4 3 C4.66 4.32 5.32 5.64 6 7 C3.95880212 5.38405168 1.95927063 3.7143618 0 2 C0 1.34 0 0.68 0 0 Z " fill="#7C7C7E" transform="translate(351,591)"/>
<path d="M0 0 C4.2742558 1.5830577 6.26531794 4.50568404 9 8 C6 8 6 8 3.375 5.6875 C1 3 1 3 0 0 Z " fill="#E3E2E2" transform="translate(292,350)"/>
<path d="M0 0 C0.66 0.33 1.32 0.66 2 1 C-0.31 3.64 -2.62 6.28 -5 9 C-5.66 8.34 -6.32 7.68 -7 7 C-4.69 4.69 -2.38 2.38 0 0 Z " fill="#C4C2C4" transform="translate(571,613)"/>
<path d="M0 0 C0.66 0.66 1.32 1.32 2 2 C0.02 4.31 -1.96 6.62 -4 9 C-4.33 8.34 -4.66 7.68 -5 7 C-3.35 4.69 -1.7 2.38 0 0 Z " fill="#DAD9DA" transform="translate(608,406)"/>
<path d="M0 0 C1.98 0 3.96 0 6 0 C6 0.99 6 1.98 6 3 C3.69 3 1.38 3 -1 3 C-0.67 2.01 -0.34 1.02 0 0 Z " fill="#5E5E5D" transform="translate(672,635)"/>
<path d="M0 0 C0 0.66 0 1.32 0 2 C-2.64 2 -5.28 2 -8 2 C-6.14210462 -1.71579076 -3.44525918 -1.06921837 0 0 Z " fill="#C1C1C2" transform="translate(331,527)"/>
<path d="M0 0 C0.33 1.32 0.66 2.64 1 4 C-0.98 4 -2.96 4 -5 4 C-4.67 3.01 -4.34 2.02 -4 1 C-1.9375 0.3125 -1.9375 0.3125 0 0 Z " fill="#D5D7D7" transform="translate(783,344)"/>
<path d="M0 0 C0.556875 0.309375 1.11375 0.61875 1.6875 0.9375 C4.12540433 2.05761821 6.36224186 2.56037364 9 3 C8.67 3.66 8.34 4.32 8 5 C5.125 4.75 5.125 4.75 2 4 C0.625 1.9375 0.625 1.9375 0 0 Z " fill="#D6D5D6" transform="translate(362,418)"/>
</svg>
